<?xml version="1.0" standalone="no"?>
<!DOCTYPE svg PUBLIC "-//W3C//DTD SVG 1.1//EN" "http://www.w3.org/Graphics/SVG/1.1/DTD/svg11.dtd" >
<svg>
<metadata>
Created by FontForge 20090914 at Wed May 10 19:33:17 2017
 By www-data
2006 Vic Fieger
</metadata>
<defs>
<font id="FawnScript" horiz-adv-x="1139" >
  <font-face 
    font-family="Fawn Script"
    font-weight="400"
    font-stretch="normal"
    units-per-em="2048"
    panose-1="2 0 0 0 0 0 0 0 0 0"
    ascent="1638"
    descent="-410"
    x-height="977.999"
    cap-height="1384"
    bbox="-526 -408.406 1280 2023"
    underline-thickness="150"
    underline-position="-142"
    unicode-range="U+0020-U+F005"
  />
<missing-glyph horiz-adv-x="1536" 
d="M256 0v1280h1024v-1280h-1024zM288 32h960v1216h-960v-1216z" />
    <glyph glyph-name=".notdef" horiz-adv-x="1536" 
d="M256 0v1280h1024v-1280h-1024zM288 32h960v1216h-960v-1216z" />
    <glyph glyph-name="space" unicode=" " horiz-adv-x="569" 
 />
    <glyph glyph-name="space" unicode="&#xa0;" horiz-adv-x="569" 
 />
    <glyph glyph-name="exclam" unicode="!" horiz-adv-x="627" 
d="M381 1526l108.003 7.99902c4 0.666992 7.33301 1 10 1c41.333 0 62 -39 62 -117c0 -56.667 -10.667 -133 -32 -229c-52.667 -242.667 -99.334 -498 -140.001 -766c-74.667 -13.333 -131.334 8.66699 -170.001 66c-20 140.667 2.33301 402.334 67 785.001l-23 84
c23.333 79.333 62.666 135.333 117.999 168zM439.003 130.999c4.66699 -119.333 -40.332 -179.001 -134.999 -179.001c-11.333 0 -23 0.666992 -35 2c-110 14.667 -165 66 -165 154c0 9.33301 0.666992 19 2 29c12 106.667 68.667 165.834 170 177.501
s155.666 -49.5 162.999 -183.5z" />
    <glyph glyph-name="quotedbl" unicode="&#x22;" horiz-adv-x="594" 
d="M197 1503h40l60 -84v-112c-32 -262.667 -76.333 -394 -133 -394h-40l-40 56c32 356 69.667 534 113 534zM439 1503h40l60 -84v-112c-32 -262.667 -76.333 -394 -133 -394h-40l-40 56c32 356 69.667 534 113 534z" />
    <glyph glyph-name="numbersign" unicode="#" 
 />
    <glyph glyph-name="dollar" unicode="$" horiz-adv-x="674" 
d="M404 1312l55.001 16.001c18 136.667 32.333 205 43 205h27l40 -84v-95c47.333 10 97.666 18.333 150.999 25l58 -47c-6 -110.667 -29.333 -166.667 -70 -168c-58 -10.667 -111 -23.334 -159 -38.001l-45 -445c74 -60 112.333 -146 115 -258
c-40 -93.333 -98.333 -176.333 -175 -249c-30 -217.333 -53.667 -326 -71 -326h-27l-26 56c4.66699 62.667 9.66699 123 15 181c-23.333 -16 -47.666 -31.667 -72.999 -47c-20.667 -126.667 -37.667 -190 -51 -190h-27l-27 56l10 117c-77.333 -1.33301 -120 32 -128 100
c-11.333 89.333 11.667 130.666 69 123.999c27.333 3.33301 54 9 80 17c9.33301 110 18.666 213 27.999 309c-154 62.667 -227.667 156 -221 280c7.33301 156.667 71.333 276.334 192 359.001c30 20.667 64 39.667 102 57c22 177.333 39 266 51 266h26l41 -84v-112
c-1.33301 -8.66699 -2.33301 -17 -3 -25zM252.001 945.001c-30 -43.333 -33.667 -81.667 -11 -115c4 40 7.66699 78.333 11 115zM373.001 515c-5.33301 4 -11.334 8 -18.001 12c-10 2.66699 -19.667 5 -29 7l-26 -220c20.667 13.333 40.334 28.333 59.001 45zM429 1080
c-17.333 -8 -33.668 -16.667 -49.001 -26l-30 -298c9.33301 -3.33301 19.333 -6.66602 30 -9.99902l14 -6c12.667 129.333 24.334 242.666 35.001 339.999z" />
    <glyph glyph-name="percent" unicode="%" horiz-adv-x="1821" 
 />
    <glyph glyph-name="ampersand" unicode="&#x26;" horiz-adv-x="569" 
 />
    <glyph glyph-name="quotesingle" unicode="'" horiz-adv-x="391" 
d="M197 1503h40l60 -84v-112c-32 -262.667 -76.333 -394 -133 -394h-40l-40 56c32 356 69.667 534 113 534z" />
    <glyph glyph-name="parenleft" unicode="(" horiz-adv-x="682" 
 />
    <glyph glyph-name="parenright" unicode=")" horiz-adv-x="682" 
 />
    <glyph glyph-name="asterisk" unicode="*" horiz-adv-x="797" 
 />
    <glyph glyph-name="plus" unicode="+" horiz-adv-x="1196" 
 />
    <glyph glyph-name="comma" unicode="," horiz-adv-x="539" 
d="M398 99c-48 -173.333 -97.332 -260.002 -147.999 -260.002h-40l-40 56c7.33301 79.333 23.333 131.333 48 156c-87.333 20 -131 69.667 -131 149c0 9.33301 0.666992 19 2 29c12 106.667 68.667 165.834 170 177.501s155.666 -49.5 162.999 -183.5
c2 -53.333 -6 -94.666 -24 -123.999z" />
    <glyph glyph-name="hyphen" unicode="-" horiz-adv-x="588" 
d="M370 857l99 4c20.667 -2.66699 41 -37.667 61 -105l-21 -93c-41.333 -38.667 -134 -66.667 -278 -84h-101l-80 101v51c0 50 106.667 92 320 126z" />
    <glyph glyph-name="hyphen" unicode="&#xad;" horiz-adv-x="588" 
d="M370 857l99 4c20.667 -2.66699 41 -37.667 61 -105l-21 -93c-41.333 -38.667 -134 -66.667 -278 -84h-101l-80 101v51c0 50 106.667 92 320 126z" />
    <glyph glyph-name="period" unicode="." horiz-adv-x="627" 
d="M435 223c4.66699 -119.333 -40.332 -179.002 -134.999 -179.002c-11.333 0 -23 0.333008 -35 1c-110 14.667 -165 66.334 -165 155.001c0 9.33301 0.666992 19 2 29c12 106.667 68.667 165.834 170 177.501s155.666 -49.5 162.999 -183.5z" />
    <glyph glyph-name="slash" unicode="/" horiz-adv-x="798" 
d="M669 1669h20.001l61 -90c-83.333 -482.667 -270 -1010.67 -560 -1584c-50.667 -102 -88.834 -149.833 -114.501 -143.5s-46.167 43.5 -61.5 111.5c296 597.333 514.333 1166 655 1706z" />
    <glyph glyph-name="zero" unicode="0" horiz-adv-x="885" 
d="M836.5 623c-74.333 -420 -232.5 -631 -474.5 -633s-358.5 158 -349.5 480s74.167 570.167 195.5 744.5s275 224.333 461 150s241.833 -321.5 167.5 -741.5zM393 237c109.333 48 183.833 152 223.5 312s39 315.5 -2 466.5s-114.333 168.667 -220 53
s-159.667 -295.167 -162 -538.5s51.167 -341 160.5 -293z" />
    <glyph glyph-name="one" unicode="1" horiz-adv-x="492" 
d="M301 1395c12.667 2 25 3.00098 37 3.00098c40 0 71 -14 93 -42c-68.667 -767.333 -115.667 -1197.33 -141 -1290c-55.333 -46 -102.666 -69 -141.999 -69h-3c-40.667 1.33301 -60.334 33.666 -59.001 96.999l116 977c-48.667 29.333 -80.667 74 -96 134
c70.667 116 135.667 179.333 195 190z" />
    <glyph glyph-name="two" unicode="2" horiz-adv-x="778" 
d="M749 1266.5c58.667 -149.667 -84.999 -460.167 -430.999 -931.5l360 59c35.333 6 60.666 -49 75.999 -165c-10 -110.667 -67 -169.334 -171 -176.001l-567 -76c-54.667 90.667 -49 197.334 17 320.001l48 33c278 435.333 423 686.333 435 753s-11.5 89.334 -70.5 68.001
s-132.5 -89 -220.5 -203c-74.667 30 -118 72.667 -130 128c21.333 150 121 256.667 299 320s296.333 20.166 355 -129.501z" />
    <glyph glyph-name="three" unicode="3" horiz-adv-x="830" 
d="M496 1402c194 -10 297.33 -101.002 309.997 -273.002c-3.33301 -180.667 -91.666 -324.667 -264.999 -432c186.667 -48.667 239.5 -181.667 158.5 -399s-214.5 -325.666 -400.5 -324.999c-169.333 10.667 -278.666 88.667 -327.999 234
c36.667 88 99.334 124.667 188.001 110c52.667 -89.333 113.167 -126.833 181.5 -112.5s124 82.333 167 204s-55.167 173.167 -294.5 154.5l-23 79c6.66699 92 71.334 157.333 194.001 196c172 100.667 224.333 199.334 157 296.001
c-109.333 44 -221.666 1.66699 -336.999 -127c-46.667 -4.66699 -80.834 12.833 -102.501 52.5s-27.834 76.167 -18.501 109.5c75.333 144 213 221.667 413 233z" />
    <glyph glyph-name="four" unicode="4" horiz-adv-x="871" 
d="M506 1421c21.333 20 42.667 29.999 64 29.999c36 0 72 -27 108 -81c-122.667 -387.333 -245 -659.666 -367 -816.999l257 101c35.333 288 78 453 128 495c52.667 34 102.667 27 150 -21l-76 -476c33.333 -41.333 49.333 -78 48 -110
c-0.666992 -42.667 -31 -76.667 -91 -102l-15 -375c-39.333 -56 -80.333 -84 -123 -84c-24.667 0 -50 9.33301 -76 28c-15.333 68 -7.33301 202 24 402l-403 -124c-66.667 8.66699 -105 61.667 -115 159c174.667 241.333 337 566.333 487 975z" />
    <glyph glyph-name="five" unicode="5" horiz-adv-x="888" 
d="M811 1433c44.667 -12 65.6689 -55.0029 63.002 -129.003s-31.334 -114.667 -86.001 -122l-445 -58l-32 -212c287.333 76.667 454.5 44.167 501.5 -97.5s48 -286 3 -433s-133.167 -257.5 -264.5 -331.5s-269.333 -96.333 -414 -67c-66.667 31.333 -93.667 84 -81 158
s40 108.333 82 103c158 -44.667 273.167 -30.5 345.5 42.5s113.5 156.167 123.5 249.5s-21 153.333 -93 180c-144 14.667 -222.5 -7.33301 -235.5 -66s-44.5 -97.167 -94.5 -115.5s-89.5 -7.16602 -118.5 33.501s-24.5 141.334 13.5 302.001l83 483
c251.333 20.667 467.666 47.334 648.999 80.001z" />
    <glyph glyph-name="six" unicode="6" horiz-adv-x="805" 
d="M469 1392c20.667 8.66699 41.333 13 62 13c33.333 0 66.333 -11.333 99 -34c52.667 -37.333 35.5 -89.833 -51.5 -157.5s-170.5 -181.5 -250.5 -341.5l50 46c130 42 239 7 327 -105c62 -80 93 -173.333 93 -280c0 -44 -5 -90.333 -15 -139
c-36.667 -166.667 -118.667 -282.667 -246 -348c-56 -28.667 -111.667 -43 -167 -43c-70.667 0 -140.667 23.333 -210 70c-91.333 60.667 -137 175 -137 343c0 62 6.33301 131.667 19 209c46 284 167.333 524.333 364 721zM286.999 253
c52 -35.333 107.834 -38.499 167.501 -9.49902s96 86.667 109 173s0.833008 161.166 -36.5 224.499s-90.333 71.833 -159 25.5s-112.334 -118 -131.001 -215s-2 -163.167 50 -198.5z" />
    <glyph glyph-name="seven" unicode="7" horiz-adv-x="786" 
d="M711 1452c48 -49.333 69.999 -116.001 65.999 -200.001c-261.333 -583.333 -430 -1001.67 -506 -1255c-73.333 -59.333 -130.5 -70.333 -171.5 -33s-52.333 89.833 -34 157.5s144.833 351.167 379.5 850.5l47 168h-40l-364 -28c-42 26.667 -55.167 84.667 -39.5 174
s36.834 134 63.501 134l307 21z" />
    <glyph glyph-name="eight" unicode="8" horiz-adv-x="921" 
d="M1010 1361l-328.001 -562.998c112 -50 163.5 -178.833 154.5 -386.5s-124.333 -343.834 -346 -408.501s-356.5 -17.334 -404.5 141.999s16.667 346.333 194 561c-144 105.333 -207.5 223 -190.5 353s88.5 239 214.5 327s246.333 111 361 69
c36.667 -13.333 39.834 -56.333 9.50098 -129s-65.5 -103 -105.5 -91c-69.333 20.667 -142.5 -8 -219.5 -86s-40.167 -170 110.5 -276l411 622c86.667 10 133 -34.667 139 -134zM501.499 244.502c79.667 57 121.832 130.333 126.499 220s-40 135.5 -134 137.5
c-192 -193.333 -258.667 -315.5 -200 -366.5s127.834 -48 207.501 9z" />
    <glyph glyph-name="nine" unicode="9" horiz-adv-x="824" 
d="M789 1332c-8.66699 -46.667 -22.665 -87.666 -41.998 -122.999c51.333 16.667 83 -27.666 95 -132.999l-250 -1025c-33.333 -116.667 -75 -167.334 -125 -152.001c-64.667 32.667 -95.334 77 -92.001 133l117 512c-137.333 -55.333 -253 -53.333 -347 6
s-127.833 191.666 -101.5 396.999s133.666 354 321.999 446s329.5 71.667 423.5 -61zM430.502 752.501c105.667 61.667 159.5 113.5 161.5 155.5l73 224c-128 67.333 -231.667 59.5 -311 -23.5s-112.833 -178.5 -100.5 -286.5s71.333 -131.167 177 -69.5z" />
    <glyph glyph-name="colon" unicode=":" horiz-adv-x="627" 
d="M439 202c4.66699 -119.333 -40.332 -179.002 -134.999 -179.002c-11.333 0 -23 0.333008 -35 1c-110 14.667 -165 66.334 -165 155.001c0 9.33301 0.666992 19 2 29c12 106.667 68.667 165.834 170 177.501s155.666 -49.5 162.999 -183.5zM523.001 815.998
c4.66699 -119.333 -40.332 -179.002 -134.999 -179.002c-11.333 0 -23 0.333008 -35 1c-110 14.667 -165 66.334 -165 155.001c0 9.33301 0.666992 19 2 29c12 106.667 68.667 165.834 170 177.501s155.666 -49.5 162.999 -183.5z" />
    <glyph glyph-name="semicolon" unicode=";" horiz-adv-x="568" 
d="M398 99c-48 -173.333 -97.332 -260.002 -147.999 -260.002h-40l-40 56c7.33301 79.333 23.333 131.333 48 156c-87.333 20 -131 69.667 -131 149c0 9.33301 0.666992 19 2 29c12 106.667 68.667 165.834 170 177.501s155.666 -49.5 162.999 -183.5
c2 -53.333 -6 -94.666 -24 -123.999zM510.001 815.998c4.66699 -119.333 -40.332 -179.002 -134.999 -179.002c-11.333 0 -23 0.333008 -35 1c-110 14.667 -165 66.334 -165 155.001c0 9.33301 0.666992 19 2 29c12 106.667 68.667 165.834 170 177.501
s155.666 -49.5 162.999 -183.5z" />
    <glyph glyph-name="semicolon" unicode="&#x37e;" horiz-adv-x="568" 
d="M398 99c-48 -173.333 -97.332 -260.002 -147.999 -260.002h-40l-40 56c7.33301 79.333 23.333 131.333 48 156c-87.333 20 -131 69.667 -131 149c0 9.33301 0.666992 19 2 29c12 106.667 68.667 165.834 170 177.501s155.666 -49.5 162.999 -183.5
c2 -53.333 -6 -94.666 -24 -123.999zM510.001 815.998c4.66699 -119.333 -40.332 -179.002 -134.999 -179.002c-11.333 0 -23 0.333008 -35 1c-110 14.667 -165 66.334 -165 155.001c0 9.33301 0.666992 19 2 29c12 106.667 68.667 165.834 170 177.501
s155.666 -49.5 162.999 -183.5z" />
    <glyph glyph-name="less" unicode="&#x3c;" horiz-adv-x="1196" 
 />
    <glyph glyph-name="equal" unicode="=" horiz-adv-x="1196" 
 />
    <glyph glyph-name="greater" unicode="&#x3e;" horiz-adv-x="1196" 
 />
    <glyph glyph-name="question" unicode="?" horiz-adv-x="919" 
d="M670 1466c138.667 -60.667 206.666 -147.666 203.999 -260.999c20.667 -64.667 15 -137.667 -17 -219c-77.333 -115.333 -175.666 -211.333 -294.999 -288c-46 -28 -46.833 -42.167 -2.5 -42.5s66.166 -29.833 65.499 -88.5l-52 -143
c-184 21.333 -278.167 85.5 -282.5 192.5s60.167 212 193.5 315s177.833 193.667 133.5 272s-179.5 4.16602 -405.5 -222.501c-49.333 -45.333 -99.666 16.667 -150.999 186c176.667 216 341.667 324 495 324c38.667 0 76.667 -8.33301 114 -25zM541.999 131.001
c2 -119.333 -44.334 -179.001 -139.001 -179.001c-11.333 0 -23 0.666992 -35 2c-109.333 14.667 -163 66 -161 154c0 9.33301 0.666992 19 2 29c14.667 106.667 72.834 165.834 174.501 177.501s154.5 -49.5 158.5 -183.5z" />
    <glyph glyph-name="at" unicode="@" horiz-adv-x="2079" 
 />
    <glyph glyph-name="A" unicode="A" horiz-adv-x="858" 
d="M484 1353c46.667 55.333 90.002 83.001 130.002 83.001c28.667 0 56 -14.333 82 -43c78 -310 117 -605.667 117 -887c0 -104.667 -5.33301 -207.667 -16 -309l-24 -145c-34.667 -26.667 -68.667 -40 -102 -40c-13.333 0 -26.333 2.33301 -39 7
c-46 14 -61.333 57.333 -46 130s8.66602 195 -20.001 367c-199.333 -68 -343 -222.333 -431 -463l-58 -41h-19c-70.667 0 -106 30.667 -106 92v2l60 335c37.333 296 77.333 464.667 120 506c69.333 23.333 99.666 -0.666992 90.999 -72
c93.333 223.333 180.333 382.666 261 477.999zM398.002 700.001l-46 -90c62 48 138.667 97 230 147c-6 203.333 -22 296 -48 278c-42 -65.333 -87.333 -177 -136 -335z" />
    <glyph glyph-name="B" unicode="B" horiz-adv-x="834" 
d="M350 1363l236.999 38.999c153.333 -44 228 -121.667 224 -233c0 -5.33301 -0.333008 -10.666 -1 -15.999c-20 -118 -82 -213 -186 -285c113.333 -88.667 162.333 -225.667 147 -411c-11.333 -182 -222 -328.333 -632 -439c-94 0 -132.333 92.333 -115 277l69 766
c-55.333 6 -61.666 62.667 -18.999 170c30 55.333 122 99.333 276 132zM284.999 1089l-16 -207.999c235.333 84.667 348.333 158.167 339 220.5s-117 58.166 -323 -12.501zM257.999 697c-38.667 -297.333 -40.333 -434.333 -5 -411c208 93.333 315 170 321 230l23 67
c-45.333 138.667 -135.333 172.667 -270 102z" />
    <glyph glyph-name="C" unicode="C" horiz-adv-x="777" 
d="M695 1394c54.667 -5.33301 81.332 -29.833 79.999 -73.5s-24 -93.5 -68 -149.5c-108 -18 -200.333 -68 -277 -150s-132.834 -214.833 -168.501 -398.5s-20.667 -306.5 45 -368.5s192.834 -28 381.501 102c36 17.333 53.333 -2.66699 52 -60s-17.333 -104.333 -48 -141
c-81.333 -77.333 -164.5 -126.666 -249.5 -147.999s-173.833 -11.666 -266.5 29.001c-35.333 17.333 -69.166 64.333 -101.499 141s-52 158 -59 244s7.83301 211.167 44.5 375.5s113 301.166 229 410.499s251.333 171.666 406 186.999z" />
    <glyph glyph-name="D" unicode="D" horiz-adv-x="964" 
d="M440 1381l69 -0.00195312c328.667 -47.333 475 -236 439 -566c-18 -167.333 -94.833 -331.666 -230.5 -492.999s-342.167 -271.333 -619.5 -330l-58 103l3 26l20 25l-14 26l-11 108l168 19l-46 47l-57 58l79 668h-35c-83.333 0 -124 14 -122 42l26 172
c67.333 50.667 197 82.334 389 95.001zM382 1124l-35 -301l-77 -522h35c147.333 34 296.333 188.333 447 463l14 128c-70 176.667 -198 254 -384 232z" />
    <glyph glyph-name="E" unicode="E" horiz-adv-x="745" 
d="M243 513l-28.002 -95.998c-13.333 -123.333 26.334 -160.666 119.001 -111.999l199 84l20 -28h20l79 28v-28l-20 -28l20 -28v-28c-173.333 -186.667 -325.666 -280 -456.999 -280h-40c-92.667 34 -134 123 -124 267c60 494.667 101.333 779 124 853
c0 37.333 9.83301 88.666 29.5 153.999s56.167 88.666 109.5 69.999l54 -56c56.667 40 117.667 68 183 84s127.333 16 186 0c21.333 -46 12.666 -130.333 -26.001 -253c-250.667 -36.667 -376 -89.334 -376 -158.001l-33 -181l235 60c56.667 0 71.334 -56.333 44.001 -169
c-34.667 -56 -140.667 -107.667 -318 -155z" />
    <glyph glyph-name="F" unicode="F" horiz-adv-x="773" 
d="M203 1301c60 84 113.001 87.001 159.001 9.00098c50 42.667 178.667 66.667 386 72c38.667 -58.667 32 -148.334 -20 -269.001c-254 -14.667 -384.333 -56.334 -391 -125.001l-35 -165l287 54c62 -14 71.667 -81 29 -201c-38 -36 -153 -71.667 -345 -107
c-22.667 -100.667 -45.334 -278 -68.001 -532c-108 -91.333 -172.667 -86.666 -194 14.001c82.667 704 146.667 1120.67 192 1250z" />
    <glyph glyph-name="G" unicode="G" horiz-adv-x="944" 
d="M685 114c-110 -69.333 -206.332 -104.001 -288.999 -104.001c-36 0 -69.667 6.66699 -101 20c-102 44.667 -166.5 104.334 -193.5 179.001s-45.833 160.667 -56.5 258c-2 21.333 -2.33301 44.666 -1 69.999c7.33301 184 50.833 352.5 130.5 505.5s161.667 248 246 285
s173.166 61.5 266.499 73.5c51.333 -5.33301 72.833 -43.5 64.5 -114.5s-32.166 -109.167 -71.499 -114.5c-106.667 -17.333 -202 -76.666 -286 -177.999s-132 -236.333 -144 -405c9.33301 -169.333 50.166 -272.333 122.499 -309s138 -24.5 197 36.5
s30.833 127.167 -84.5 198.5c-72.667 2 -94.667 60.333 -66 175c26.667 86 177 143 451 171c44 -5.33301 60.333 -53 49 -143l-46 -56l-173 -74c156.667 -152 151.667 -310 -15 -474z" />
    <glyph glyph-name="H" unicode="H" horiz-adv-x="865" 
d="M772 1377h38.998c46 -31.333 52 -173.333 18 -426c-19.333 -332.667 -48.666 -596 -87.999 -790l-24 -100c-39.333 -31.333 -92 -36 -158 -14l41 516h-19l-304 -57c-18 -178.667 -46.333 -334.667 -85 -468l-99 -17c-52.667 8.66699 -71 52.834 -55 132.501
s35.667 205.167 59 376.5l-51 30l7 115c-1.33301 58 19.334 88.333 62.001 91l54 517c5.33301 42.667 48.333 66.667 129 72c25.333 -40.667 40 -78.334 44 -113.001l-37 -476l258 14l61 -88l44 581c-26.667 69.333 8 104 104 104z" />
    <glyph glyph-name="I" unicode="I" horiz-adv-x="548" 
d="M150 268l0.000976562 47l73 786c-62.667 -11.333 -99.334 11 -110.001 67v28c0 112 21.667 167.333 65 166l329 22c27.333 -12 34 -53.333 20 -124c-5.33301 -78.667 -47 -120.334 -125 -125.001l-13 -149c-32 -338 -59.667 -570.333 -83 -697l45 6
c33.333 -8 55.5 -25.167 66.5 -51.5s1.16699 -94.166 -29.5 -203.499c-219.333 -47.333 -336.333 -46 -351 4l30 213z" />
    <glyph glyph-name="J" unicode="J" horiz-adv-x="571" 
d="M-56 -112c169.333 4 271.665 406.004 306.998 1206l-95 -12c-45.333 72 -33 157.333 37 256c176 38 293.333 49.333 352 34c41.333 -102.667 45.666 -173.834 12.999 -213.501s-67.334 -55.167 -104.001 -46.5c-4 -384.667 -36.167 -699.834 -96.5 -945.501
s-133.166 -407.834 -218.499 -486.501s-156.666 -104.834 -213.999 -78.501s-78.666 79.833 -63.999 160.5s42.334 122.667 83.001 126z" />
    <glyph glyph-name="K" unicode="K" horiz-adv-x="841" 
d="M864 1389l41.001 -71c-7.33301 -74.667 -147 -277.334 -419 -608.001c186 -357.333 280 -561.666 282 -612.999l-94 -84c-44.667 0 -168.334 195.333 -371.001 586l-71 -64c1.33301 -49.333 -19 -186 -61 -410c-26.667 -85.333 -78.667 -110 -156 -74l-39 71
c52.667 374.667 101.667 795 147 1261c69.333 23.333 134.666 14.666 195.999 -26.001l-66 -563c188.667 178.667 346.334 377.334 473.001 596.001c50.667 -0.666992 96.667 -1 138 -1z" />
    <glyph glyph-name="L" unicode="L" horiz-adv-x="576" 
d="M336 1295c-66.667 -498.667 -100.335 -811.336 -101.002 -938.003l6 -31l265 66l57 -84c-16 -158.667 -40.333 -240.667 -73 -246l-340 -92c-70.667 -26 -107.667 -11.333 -111 44c-24.667 110.667 -33.167 183.834 -25.5 219.501s20.834 69.834 39.501 102.501
c32.667 445.333 73.334 776 122.001 992c4 42.667 32.167 59.834 84.5 51.501s77.833 -36.5 76.5 -84.5z" />
    <glyph glyph-name="M" unicode="M" horiz-adv-x="1070" 
d="M834 1357c46.667 24.667 97.001 34.667 151.001 30s76.333 -130 67 -376l-69 -795c-8 -116.667 -32.667 -176.667 -74 -180c-80.667 -52 -125 -42 -133 30c50 592.667 58.667 853.334 26 782.001c-160 -528 -261.667 -793 -305 -795
c-76.667 -52.667 -116.334 -22 -119.001 92c-2 540.667 -17 779 -45 715c-30.667 -66 -89 -341.333 -175 -826c-42 -33.333 -79.333 -36.333 -112 -9s-48 59.333 -46 96c69.333 798.667 128 1199.67 176 1203c52.667 30 89.667 21.333 111 -26l15 -91
c50 112 101 169.333 153 172h106l4 -476c-8 -186.667 20 -185.334 84 3.99902c63.333 265.333 125 415.333 185 450z" />
    <glyph glyph-name="N" unicode="N" horiz-adv-x="935" 
d="M839 1417l24 -20.999v33l64 15l-36 -416l-90 -878c-2 -72 -19 -111.333 -51 -118l-124 -34c-97.333 218 -210.666 502 -339.999 852c-24.667 -366 -56 -625.667 -94 -779c-20 -43.333 -58.333 -67 -115 -71s-81 27 -73 93c66 447.333 110.667 759.333 134 936
c-9.33301 24 -18 63.5 -26 118.5s18.333 130.167 79 225.5l51 51c19.333 17.333 35.666 16.333 48.999 -3l349 -954l40 320c23.333 433.333 71.333 651.666 144 654.999z" />
    <glyph glyph-name="O" unicode="O" horiz-adv-x="971" 
d="M476 1367c5.33301 2 10.333 3 15 3c32 0 37.667 -54.333 17 -163l32 95c274 -48 411 -221.667 411 -521c0 -18.667 -0.666992 -37.667 -2 -57c-36 -450 -220.333 -686.667 -553 -710c-237.333 34.667 -356 170.667 -356 408c0 14 0.333008 28.333 1 43
c14.667 264 73.167 474.333 175.5 631s188.833 247 259.5 271zM257 590c-14.667 -256 56.002 -374.334 212.002 -355.001c150 62.667 239.667 221.334 269 476.001c19.333 200 -34.334 326.5 -161.001 379.5s-233.334 -113.833 -320.001 -500.5z" />
    <glyph glyph-name="P" unicode="P" horiz-adv-x="857" 
d="M701 1350c102.667 -60.667 159.667 -147.501 171 -260.501s-15.334 -232.333 -80.001 -358s-141.5 -211.5 -230.5 -257.5s-173.167 -73.333 -252.5 -82l-33 80c-26 -121.333 -43.333 -263.666 -52 -426.999c-16.667 -56.667 -77.667 -59.334 -183 -8.00098l9 117l115 862
c-42 34.667 -55 101.334 -39 200.001c30.667 29.333 80.334 65.333 149.001 108c181.333 78 323.333 86.667 426 26zM300 594.999c152.667 34 258.5 99.5 317.5 196.5s72.167 189 39.5 276s-129.667 88.833 -291 5.5z" />
    <glyph glyph-name="Q" unicode="Q" horiz-adv-x="885" 
d="M594 474c8.66699 23.333 16.333 48.333 23 75c39.333 160 38.5 315.5 -2.5 466.5s-114.333 168.667 -220 53s-159.667 -295.167 -162 -538.5s51.167 -341 160.5 -293c22 9.33301 42.667 21.333 62 36l-52 123c-2.66699 133.333 24 194.333 80 183
c47.333 11.333 84.333 -23.667 111 -105zM533.999 34c-51.333 -28.667 -108.666 -43.333 -171.999 -44c-242 -2 -358.5 158 -349.5 480s74.167 570.167 195.5 744.5s275 224.333 461 150s242 -321.5 168 -741.5c-35.333 -198 -81 -337 -137 -417l112 -174
c-26.667 -106 -65.334 -159 -116.001 -159l-67 13z" />
    <glyph glyph-name="R" unicode="R" horiz-adv-x="907" 
d="M611 1390c190 11.333 278.999 -87.499 266.999 -296.499s-141 -362.833 -387 -461.5l45 -20c196.667 -255.333 310.667 -434.333 342 -537l-64 -77h-19c-124 93.333 -283.333 281 -478 563c-45.333 -221.333 -71.666 -380.333 -78.999 -477
c-138 -32.667 -203.333 -15.667 -196 51l141 941c-72.667 -10 -92 49.333 -58 178c22.667 63.333 184.667 108.666 486 135.999zM365.999 1100l16.9971 -28.001l-47 -316c180.667 75.333 290.334 165.5 329.001 270.5s4.83398 153.333 -101.499 145
s-172.166 -32.166 -197.499 -71.499z" />
    <glyph glyph-name="S" unicode="S" horiz-adv-x="674" 
d="M722 1379l58.001 -46.999c-6 -110.667 -29.333 -166.667 -70 -168c-212.667 -39.333 -359.334 -106 -440.001 -200s-43.167 -166.833 112.5 -218.5s235.167 -159.167 238.5 -322.5c-68.667 -160 -191.334 -290.333 -368.001 -391c-130 -30 -200.667 -0.333008 -212 89
s11.667 130.666 69 123.999c97.333 12.667 182.166 51.5 254.499 116.5s69.833 120.167 -7.5 165.5c-248 59.333 -368.167 167.333 -360.5 324s71.834 276.167 192.501 358.5s298.334 138.833 533.001 169.5z" />
    <glyph glyph-name="T" unicode="T" horiz-adv-x="671" 
d="M109 1319l563.001 52c58 -18 80 -62.333 66 -133c-5.33301 -78.667 -50.333 -118 -135 -118l-129 -19l-29 -149c-62 -609.333 -117.667 -914 -167 -914l-60 -28l-39 56l19 140v280l81 581l-149 -17c-68.667 0 -108.334 28 -119.001 84v28c0 112 32.667 164.333 98 157z
" />
    <glyph glyph-name="U" unicode="U" horiz-adv-x="919" 
d="M877 1274c11.333 -297.333 7.16699 -558.837 -12.5 -784.504s-101.5 -364.5 -245.5 -416.5c-172.667 -66.667 -315.334 -72.667 -428.001 -18s-161.667 221 -147 499c45.333 424.667 127.333 697.334 246 818.001c84 10.667 128.333 -9.66602 133 -60.999
c-70 -207.333 -120 -440.666 -150 -699.999c-26 -248 17.667 -365 131 -351c138.667 2.66699 222.5 87.5 251.5 254.5s36.833 400.167 23.5 699.5c-13.333 70 12.834 109.833 78.501 119.5s105.5 -10.166 119.5 -59.499z" />
    <glyph glyph-name="V" unicode="V" horiz-adv-x="782" 
d="M147 1393c60 10.667 92.333 -34.668 97 -136.001c-9.33301 -694 4 -990 40 -888l275 828c36.667 101.333 80.834 162.5 132.501 183.5s90.167 7.5 115.5 -40.5s-81.667 -378.333 -321 -991c-90.667 -210 -159.334 -323.167 -206.001 -339.5s-90.667 -26.833 -132 -31.5
c-56 5.33301 -98 419.333 -126 1242c13.333 120.667 55 178.334 125 173.001z" />
    <glyph glyph-name="W" unicode="W" horiz-adv-x="980" 
d="M1018 1294l-144.001 -648.998l-177 -571c-116 -60.667 -191 -67.667 -225 -21l-20 268c-8 117.333 -27.667 136.666 -59 57.999l-141 -277c15.333 -20 -35.667 -40.667 -153 -62c-28.667 16 -44 71.667 -46 167l-16 1053c22 62 58.667 97.667 110 107s77.333 -11 78 -61
l32 -799c67.333 147.333 128 304.666 182 471.999c38.667 10 70.5 15 95.5 15s47.833 -168.667 68.5 -506c55.333 131.333 120 387.666 194 768.999c16.667 68 58.667 102.667 126 104c46.667 10.667 78.334 -11.666 95.001 -66.999z" />
    <glyph glyph-name="X" unicode="X" horiz-adv-x="816" 
d="M699 1276c51.333 91.333 101.33 127.332 149.997 107.999s60.334 -66 35.001 -140s-76 -170 -152 -288s-144 -218.333 -204 -301c14.667 -96.667 78 -273.667 190 -531c12 -67.333 9.33301 -111 -8 -131s-46.666 -29 -87.999 -27c-74.667 0 -152 157 -232 471
c-75.333 -170 -170.333 -297.667 -285 -383c-28.667 -39.333 -66.667 -48.166 -114 -26.499s-46.333 84.5 3 188.5c186 230 286 376 300 438c-57.333 185.333 -109.666 346 -156.999 482c-25.333 100 -6.33301 175.5 57 226.5s102.666 15.5 117.999 -106.5
c22.667 -105.333 63.334 -228 122.001 -368c88 100.667 176.333 230 265 388z" />
    <glyph glyph-name="Y" unicode="Y" horiz-adv-x="785" 
d="M700 1380c26.667 32 66.6689 37.6641 120.002 16.9971s58 -68 14 -142c-119.333 -132.667 -253.666 -327 -402.999 -583c-84.667 -216 -128.334 -436.667 -131.001 -662c-49.333 -86.667 -117 -93.667 -203 -21c-22.667 66 -24.334 155.333 -5.00098 268
s62 246.334 128 401.001c-79.333 170.667 -143.333 338.667 -192 504c-14.667 98 11.666 169.333 78.999 214s110 4.33398 128 -120.999c14.667 -139.333 45.667 -262.666 93 -369.999c126 213.333 250 378.333 372 495z" />
    <glyph glyph-name="Z" unicode="Z" horiz-adv-x="755" 
d="M713 1390c52.667 -17.333 77.3301 -56.001 73.9971 -116.001c-2 -32 -11.333 -69.333 -28 -112c-133.333 -331.333 -287.666 -622.666 -462.999 -873.999l274 39c60 28 107.667 24.667 143 -10c4.66699 -36.667 6.33398 -70 5.00098 -100
c-5.33301 -86.667 -39.333 -141.667 -102 -165l-370 -28l-195 -8c-41.333 62.667 -59.666 129 -54.999 199v9c263.333 376.667 447.333 679.667 552 909l-250 -29c-140 -18 -206.333 36 -199 162c3.33301 49.333 33 82.333 89 99l228 2z" />
    <glyph glyph-name="bracketleft" unicode="[" horiz-adv-x="569" 
 />
    <glyph glyph-name="backslash" unicode="\" horiz-adv-x="569" 
 />
    <glyph glyph-name="bracketright" unicode="]" horiz-adv-x="569" 
 />
    <glyph glyph-name="asciicircum" unicode="^" horiz-adv-x="961" 
 />
    <glyph glyph-name="underscore" unicode="_" 
 />
    <glyph glyph-name="grave" unicode="`" horiz-adv-x="402" 
d="M68 1466c22.667 8.66699 44.667 12.999 66 12.999c34 0 66 -11.333 96 -34c66.667 -142.667 100 -244.667 100 -306c0 -27.333 -6.66699 -46.666 -20 -57.999l-31 -26l-41 16l-190 260c-7.33301 15.333 -11 31.333 -11 48c0 27.333 10.333 56.333 31 87z" />
    <glyph glyph-name="a" unicode="a" horiz-adv-x="813" 
d="M521 227c-48.667 -69.333 -110.669 -104 -186.002 -104c-34.667 0 -71.667 7.33301 -111 22c-104.667 37.333 -157 128 -157 272c0 32 2.66699 67 8 105c28 205.333 157.333 358 388 458c32.667 10.667 61.334 16 86.001 16c50.667 0 83.334 -22.667 98.001 -68l82 28
c31.333 12 47 -17 47 -87c0 -36.667 -4.33301 -85 -13 -145l-55 -575c-92 -46.667 -155 -40.667 -189 18zM545.998 432l34 270.999c-10 61.333 -49.667 78.333 -119 51s-123.333 -78.666 -162 -153.999s-44 -152.333 -16 -231s115.667 -57.667 263 63z" />
    <glyph glyph-name="b" unicode="b" horiz-adv-x="794" 
d="M579 534c37.333 158.667 17.332 245.001 -60.001 259.001c-89.333 1.33301 -168.666 -64.667 -237.999 -198c-44.667 -198 10 -282 164 -252c66 5.33301 108.333 54.666 127 147.999c2.66699 14.667 5 29 7 43zM205.999 215.001c-13.333 -40.667 -33.998 -66 -61.998 -76
c-10.667 -2 -20.334 -3 -29.001 -3c-58 0 -85.333 44 -82 132v3l156 994c4 96.667 52 145 144 145c6.66699 1.33301 13 2 19 2c33.333 0 47 -19.333 41 -58l-89 -466c18.667 72.667 116.667 110.334 294 113.001c12 0 24 -0.666992 36 -2
c103.333 -12.667 152 -101.667 146 -267c-2 -46 -8.33301 -96.667 -19 -152c-4.66699 -44 -12.667 -92 -24 -144c-42.667 -192.667 -141 -294.334 -295 -305.001c-106.667 -7.33301 -185.334 20.667 -236.001 84z" />
    <glyph glyph-name="c" unicode="c" horiz-adv-x="664" 
d="M327 127c-12 -0.666992 -23.3311 -1.00195 -33.998 -1.00195c-134 0 -218.333 63.333 -253 190c-15.333 54.667 -23 110.667 -23 168c0 87.333 17.333 177.666 52 270.999c90 149.333 158.833 226.166 206.5 230.499s73.167 6.5 76.5 6.5c119.333 0 211.333 -46 276 -138
c12 -15.333 18 -31.333 18 -48c0 -23.333 -11 -48 -33 -74c-39.333 -46 -80 -55 -122 -27c-45.333 58.667 -97 76.334 -155 53.001c-53.333 -1.33301 -92.333 -39.666 -117 -114.999s-28.834 -146.166 -12.501 -212.499s57.5 -96.833 123.5 -91.5
c39.333 -11.333 84.666 5 135.999 49c30 65.333 66.667 83.333 110 54s57.666 -69.666 42.999 -120.999c-75.333 -121.333 -172.666 -186 -291.999 -194z" />
    <glyph glyph-name="d" unicode="d" horiz-adv-x="786" 
d="M521 227c-48.667 -69.333 -110.667 -104.001 -186 -104.001c-34.667 0 -71.667 7.33301 -111 22c-104.667 37.333 -157 128 -157 272c0 32 2.66699 67 8 105c14 272 97.333 430.167 250 474.5s249 28.5 289 -47.5l53 401c22 42 59.5 51.833 112.5 29.5
s70.5 -64.166 52.5 -125.499c-37.333 -293.333 -60.333 -470 -69 -530l-55 -575c-92 -46.667 -155 -40.667 -189 18zM546 431.999l34 271.001c-10 61.333 -56 95.666 -138 102.999s-136 -44 -162 -154s-25 -204.333 3 -283s115.667 -57.667 263 63z" />
    <glyph glyph-name="e" unicode="e" horiz-adv-x="698" 
d="M514 679c0.666992 118.667 -50.333 164 -153 136c-60.667 -28 -104.667 -80.667 -132 -158c-10 -27.333 -17 -55 -21 -83c89.333 0.666992 191.333 35.667 306 105zM207 409c12.667 -89.333 77.6709 -105.666 195.004 -48.999c70.667 46 120.5 44.333 149.5 -5
s21.5 -87.333 -22.5 -114c-54.667 -50 -125.334 -80.667 -212.001 -92c-12 -1.33301 -23.333 -2.33301 -34 -3c-134 -10 -216 47.333 -246 172c-13.333 53.333 -19 108.666 -17 165.999c3.33301 87.333 23.333 185.666 60 294.999c63.333 112 127.666 179.5 192.999 202.5
s99.666 34.5 102.999 34.5c119.333 8.66699 209.666 -30.666 270.999 -117.999c11.333 -14.667 20.333 -55.667 27 -123s-7.83301 -126.5 -43.5 -177.5s-97.5 -95.167 -185.5 -132.5s-167.333 -56 -238 -56z" />
    <glyph glyph-name="f" unicode="f" horiz-adv-x="516" 
d="M441 1192l-20.998 -162.003l56 7c95.333 16.667 151.333 -20.333 168 -111c2.66699 -6.66699 4.66699 -12.667 6 -18c6 -33.333 -10.667 -51 -50 -53l-59 -5l-145 -17l-5 -37l-54 -500c-6 -89.333 -36 -141.666 -90 -156.999c-10.667 -2 -20.334 -3 -29.001 -3
c-58 0 -86.667 44 -86 132c0.666992 1.33301 1 2.33301 1 3l70 549l-9 -1c-88.667 -10 -145.334 10 -170.001 60c-4 10 -7 19.333 -9 28c-10.667 57.333 27.333 93.333 114 108c1.33301 0.666992 2.33301 1 3 1l97 5l16 123c0.666992 38.667 8.33398 69.334 23.001 92.001
c5.33301 18.667 11.666 37.667 18.999 57c90 110.667 158.833 168.167 206.5 172.5s73.167 6.5 76.5 6.5c42 6 71.167 -26.667 87.5 -98s3.5 -109.333 -38.5 -114c-18 1.33301 -37 -2 -57 -10c-50.667 -1.33301 -91 -20.666 -121 -57.999z" />
    <glyph glyph-name="g" unicode="g" horiz-adv-x="777" 
d="M645 928l81.999 27.9961c48 18.667 59.333 -58.666 34 -231.999l-64 -664l-41 -305c-4.66699 -76.667 -38.667 -115 -102 -115c-266 102.667 -442 103.334 -528 2.00098c-33.333 -22 -60.333 -22 -81 0c-40 53.333 -44.667 108.333 -14 165
c10 38.667 51.5 78.834 124.5 120.501s213.5 32.167 421.5 -28.5l42 328c-70.667 -100.667 -170 -128.167 -298 -82.5s-177.667 171.334 -149 377.001s158.334 358.5 389.001 458.5c100.667 32 162 14.667 184 -52zM280.999 368.996c28 -78.667 115.667 -57.668 263 62.999
l34 271c-10 61.333 -49.667 78.333 -119 51s-123.333 -78.666 -162 -153.999s-44 -152.333 -16 -231z" />
    <glyph glyph-name="h" unicode="h" horiz-adv-x="776" 
d="M632 999c103.333 -12.667 151.999 -101.668 145.999 -267.001c-3.33301 -93.333 -25.666 -206 -66.999 -338c11.333 -40 16.333 -75.667 15 -107c-2 -58 -24.667 -102.333 -68 -133c-23.333 -12 -43.666 -18 -60.999 -18c-55.333 0 -81.333 61 -78 183
c76.667 304 77.167 463.167 1.5 477.5s-176.167 -152.5 -301.5 -500.5c-8 -89.333 -33.667 -141.666 -77 -156.999c-10.667 -2 -20.334 -3 -29.001 -3c-58 0 -85.333 44 -82 132v3l156 994c4 96.667 52 145 144 145c6.66699 1.33301 13 2 19 2c33.333 0 47 -19.333 41 -58
l-106 -558c30 134 133.667 202.333 311 205c12 0 24 -0.666992 36 -2z" />
    <glyph glyph-name="i" unicode="i" horiz-adv-x="355" 
d="M262 296c-6 -89.333 -35.999 -141.667 -89.999 -157c-10.667 -2 -20.334 -3 -29.001 -3c-58 0 -86.333 44 -85 132v3l79 596c2 96.667 49 145 141 145c6.66699 1.33301 13 2 19 2c33.333 0 47.333 -19.333 42 -58l-23 -160zM409.001 1272
c4 -94.667 -28.666 -142 -97.999 -142c-8.66699 0 -17.334 0.333008 -26.001 1c-80.667 11.333 -121 52 -121 122c0 8 0.666992 15.667 2 23c8.66699 84.667 50 131.667 124 141s113.667 -39 119 -145z" />
    <glyph glyph-name="j" unicode="j" horiz-adv-x="391" 
d="M290 956c4.66699 2 9 2.99805 13 2.99805c22.667 0 34 -30 34 -90c0 -36.667 -4.33301 -85 -13 -145l-64 -664l-41 -305c-4.66699 -76.667 -38.667 -115 -102 -115c-266 102.667 -442 103.334 -528 2.00098c-16.667 -10.667 -32 -16 -46 -16
c-13.333 0 -25 5.33301 -35 16c-22.667 30.667 -34 62 -34 94c0 23.333 6.33301 47 19 71c10 38.667 51.667 78.834 125 120.501s214 32.167 422 -28.5l42 328l25 205l30 251l20 197c4.66699 40.667 49 66 133 76zM397 1271c4 -94 -29 -141 -99 -141
c-8 0 -16.333 0.333008 -25 1c-80.667 11.333 -121 52 -121 122c0 7.33301 0.333008 15 1 23c9.33301 84.667 51 131.5 125 140.5s113.667 -39.5 119 -145.5z" />
    <glyph glyph-name="k" unicode="k" horiz-adv-x="717" 
d="M286 517l-24 -221.002c-6 -89.333 -36 -141.666 -90 -156.999c-10.667 -2 -20.334 -3 -29.001 -3c-56.667 0 -85 42 -85 126v6v3l133 994c2 96.667 49 145 141 145c6.66699 1.33301 13 2 19 2c33.333 0 47.333 -19.333 42 -58l-77 -558l-11 -98l261 240
c44 25.333 85.667 29 125 11c17.333 -8 26 -21.667 26 -41c0 -25.333 -14.333 -59.666 -43 -102.999c-51.333 -78 -121.666 -150.667 -210.999 -218l241 -294c24.667 -34 26 -64.667 4 -92c0 -40 -43 -66 -129 -78z" />
    <glyph glyph-name="l" unicode="l" horiz-adv-x="355" 
d="M262 296c-6 -89.333 -35.999 -141.667 -89.999 -157c-10.667 -2 -20.334 -3 -29.001 -3c-58 0 -86.333 44 -85 132v3l133 994c2 96.667 49 145 141 145c6.66699 1.33301 13 2 19 2c33.333 0 47.333 -19.333 42 -58l-77 -558z" />
    <glyph glyph-name="m" unicode="m" horiz-adv-x="1257" 
d="M695 194c-11.333 -22 -27.6689 -40.666 -49.002 -55.999c-23.333 -12 -43.666 -18 -60.999 -18c-55.333 0 -81.333 61 -78 183c70.667 314.667 88.167 477 52.5 487s-133.834 -163 -294.501 -519c-38.667 -72.667 -79.667 -116.667 -123 -132
c-10.667 -2 -20.334 -3 -29.001 -3c-58 0 -85.333 44 -82 132v3l85 601c3.33301 96.667 51 145 143 145c6.66699 1.33301 13 2 19 2c33.333 0 47 -19.333 41 -58l-60 -298c100.667 225.333 207.667 338 321 338c12 0 24 -0.666992 36 -2
c103.333 -12.667 152 -101.667 146 -267c-0.666992 -8 -1 -16.333 -1 -25c68.667 196 171.334 294 308.001 294c12 0 24 -0.666992 36 -2c103.333 -12.667 152 -101.667 146 -267c-4 -93.333 -25.333 -211.333 -64 -354c11.333 -40 16.333 -75.667 15 -107
c-2 -58 -24.333 -102.333 -67 -133c-23.333 -12 -43.666 -18 -60.999 -18c-55.333 0 -81.333 61 -78 183c70.667 314.667 79.834 477 27.501 487s-145.166 -163 -278.499 -519c-16.667 -30.667 -33.334 -56.334 -50.001 -77.001z" />
    <glyph glyph-name="n" unicode="n" horiz-adv-x="801" 
d="M666 999c103.333 -12.667 151.999 -101.667 145.999 -267c-3.33301 -93.333 -24.333 -211.333 -63 -354c11.333 -40 16.333 -75.667 15 -107c-2 -58 -24.667 -102.333 -68 -133c-23.333 -12 -43.666 -18 -60.999 -18c-55.333 0 -81.333 61 -78 183
c71.333 314.667 80.833 477 28.5 487s-159.166 -163 -320.499 -519c-38.667 -72.667 -79.667 -116.667 -123 -132c-10.667 -2 -20.334 -3 -29.001 -3c-58 0 -85.333 44 -82 132v3l85 601c4 96.667 52 145 144 145c6.66699 1.33301 13 2 19 2c33.333 0 47 -19.333 41 -58
l-60 -298c100 225.333 223.333 338 370 338c12 0 24 -0.666992 36 -2z" />
    <glyph glyph-name="o" unicode="o" horiz-adv-x="664" 
d="M607 858c52.667 -92 57.666 -234.167 14.999 -426.5s-141 -294 -295 -305s-249.833 52.167 -287.5 189.5s-28 283.5 29 438.5s147.833 234 272.5 237s213.334 -41.5 266.001 -133.5zM218.999 643c-24.667 -75.333 -28.832 -146.169 -12.499 -212.502
s57.5 -96.833 123.5 -91.5s108.167 54.5 126.5 147.5s16.166 161.833 -6.50098 206.5s-60.667 66.334 -114 65.001s-92.333 -39.666 -117 -114.999z" />
    <glyph glyph-name="p" unicode="p" horiz-adv-x="794" 
d="M587 593c32 119.333 9.33203 186 -68.001 200c-89.333 1.33301 -168.666 -64.667 -237.999 -198c-44.667 -198 7 -289 155 -273c72 19.333 120 95.333 144 228c2.66699 14.667 5 29 7 43zM205.999 215c-72 -388.667 -121.997 -588 -149.997 -598
c-10.667 -2 -20.334 -3 -29.001 -3c-58 0 -93.333 26 -106 78l112 579l110 668c-7.33301 66 35 99 127 99c6.66699 1.33301 13 2 19 2c33.333 0 47 -19.333 41 -58l-26 -94c18.667 72.667 116.667 110.334 294 113.001c12 0 24 -0.666992 36 -2
c103.333 -12.667 149.166 -136.334 137.499 -371.001s-107.5 -399 -287.5 -493c-134.667 -10 -227.334 16.667 -278.001 80z" />
    <glyph glyph-name="q" unicode="q" horiz-adv-x="786" 
d="M521 227c-48.667 -69.333 -110.668 -104.002 -186.001 -104.002c-34.667 0 -71.667 7.33301 -111 22c-104.667 37.333 -157 128 -157 272c0 32 2.66699 67 8 105c28 205.333 157.333 358 388 458c32.667 10.667 61.334 16 86.001 16c50.667 0 83.334 -22.667 98.001 -68
l82 28c31.333 12 47 -17 47 -87c0 -36.667 -4.33301 -85 -13 -145l-69 -783c11.333 -32 35.666 -42.333 72.999 -31c70.667 4 69.667 -75 -3 -237c-80 -45.333 -143.5 -57.166 -190.5 -35.499s-75.167 75.834 -84.5 162.501zM545.999 431.998l34 270.999
c-10 61.333 -49.667 78.333 -119 51s-123.333 -78.666 -162 -153.999s-44 -152.333 -16 -231s115.667 -57.667 263 63z" />
    <glyph glyph-name="r" unicode="r" horiz-adv-x="604" 
d="M326 906c36 61.333 126 92.999 270 94.999c12 0 38 -18.667 78 -56c8.66699 -11.333 13 -24 13 -38c0 -27.333 -14.667 -60.333 -44 -99c-45.333 -60.667 -91.666 -65.667 -138.999 -15c-122.667 -8 -217.667 -173.667 -285 -497
c-8 -89.333 -33.667 -141.666 -77 -156.999c-10.667 -2 -20.334 -3 -29.001 -3c-54.667 0 -82 39.333 -82 118v14v3l106 589c4 96.667 52 145 144 145c6.66699 1.33301 13 2 19 2c33.333 0 47 -19.333 41 -58z" />
    <glyph glyph-name="s" unicode="s" horiz-adv-x="530" 
d="M457 1010c42.667 -26.667 64.001 -61.002 64.001 -103.002c0 -23.333 -6.33301 -48.666 -19 -75.999l-129 -37c-162 -20.667 -169.333 -74.667 -22 -162c107.333 -44 161 -104.667 161 -182c8 -46 4.33301 -85.667 -11 -119c-55.333 -123.333 -161.333 -190 -318 -200
l-88 -13c-40.667 11.333 -61 34 -61 68v72c14 51.333 61.667 71.666 143 60.999c168.667 42.667 188 102.334 58 179.001c-131.333 38.667 -197 119.334 -197 242.001c0 6.66699 0.333008 13.667 1 21c9.33301 105.333 148.666 188.333 417.999 249z" />
    <glyph glyph-name="t" unicode="t" horiz-adv-x="516" 
d="M396 833l-4.99805 -37.001l-54 -500c-6 -89.333 -36 -141.666 -90 -156.999c-10.667 -2 -20.334 -3 -29.001 -3c-58 0 -86.667 44 -86 132c0.666992 1.33301 1 2.33301 1 3l70 549l-9 -1c-88.667 -10 -145.334 10 -170.001 60c-4 10 -7 19.333 -9 28
c-10.667 57.333 27.333 93.333 114 108c1.33301 0.666992 2.33301 1 3 1l97 5l16 123c1.33301 96.667 48 145 140 145c6.66699 1.33301 13 2 19 2c33.333 0 47.333 -19.333 42 -58l-26 -203l56 7c95.333 16.667 151.333 -20.333 168 -111
c2.66699 -6.66699 4.66699 -12.667 6 -18c6 -33.333 -10.667 -51 -50 -53l-59 -5z" />
    <glyph glyph-name="u" unicode="u" horiz-adv-x="778" 
d="M521 227c-48.667 -69.333 -110.669 -104.002 -186.002 -104.002c-34.667 0 -71.667 7.33301 -111 22c-104.667 36.667 -157 127.334 -157 272.001c0 32 2.66699 67 8 105c3.33301 25.333 8.33301 50.333 15 75c40.667 166 76.334 274.333 107.001 325
c22.667 37.333 52.667 56 90 56c12.667 0 26 -2 40 -6c56.667 -17.333 71.334 -54.666 44.001 -111.999c-53.333 -112 -85.333 -210.833 -96 -296.5s-8 -150.5 8 -194.5c28 -78.667 115.667 -57.667 263 63l30 251l20 197c4.66699 40.667 49 66 133 76c4.66699 2 9 3 13 3
c22.667 0 34 -30 34 -90c0 -36.667 -4.33301 -85 -13 -145l-51 -533c-71.333 -50 -124 -75 -158 -75c-20 0 -33.333 9 -40 27z" />
    <glyph glyph-name="v" unicode="v" horiz-adv-x="706" 
d="M551 980c32.667 72.667 68.5 92.667 107.5 60s61.5 -73.667 67.5 -123c-124 -263.333 -320 -531.333 -588 -804c-41.333 0 -68 46.667 -80 140l20 66l-60 578l60 112h40c66.667 -65.333 100 -168 100 -308v-84l-1 -155z" />
    <glyph glyph-name="w" unicode="w" horiz-adv-x="1082" 
d="M504 598c-158.667 -321.333 -271 -482.997 -337 -484.997c-41.333 0 -68 46.667 -80 140l20 66l-60 578l60 112h40c66.667 -65.333 100 -168 100 -308v-84l8 -118l258 481c41.333 39.333 76.5 42.666 105.5 9.99902s45.333 -58.334 49 -77.001
s0.166992 -38.667 -10.5 -60c10.667 -44.667 16 -95.334 16 -152.001v-84l-1 -155l288 527c32.667 72.667 68.5 92.667 107.5 60s61.5 -73.667 67.5 -123c-124 -263.333 -276.667 -534.333 -458 -813c-97.333 0 -152 46.667 -164 140l-1 74z" />
    <glyph glyph-name="x" unicode="x" horiz-adv-x="598" 
d="M440 957c16.667 29.333 40.665 44 71.998 44c16 0 34 -3.66699 54 -11c32.667 -12.667 49 -32.334 49 -59.001c0 -21.333 -10.333 -47 -31 -77l-181 -272c12 -95.333 59.667 -196 143 -302c-3.33301 -44 -23.666 -84.667 -60.999 -122
c-21.333 -21.333 -41.333 -32 -60 -32c-13.333 0 -26 6.33301 -38 19c-26 36 -62.667 116.333 -110 241c-32.667 -91.333 -81 -171.666 -145 -240.999c-10.667 -10.667 -23.667 -16 -39 -16c-22 0 -49 10.667 -81 32c-31.333 20.667 -47 43.334 -47 68.001
c0 18 8.66699 37.333 26 58c114.667 140 179.667 242 195 306c-17.333 18 -48.333 92.333 -93 223c-1.33301 55.333 25.334 105.666 80.001 150.999c25.333 20.667 46 31 62 31c18.667 0 31 -14.333 37 -43c20 -103.333 36.333 -177 49 -221z" />
    <glyph glyph-name="y" unicode="y" horiz-adv-x="777" 
d="M727 956c4.66699 2 8.99902 2.99707 12.999 2.99707c22.667 0 34 -30 34 -90c0 -36.667 -4.33301 -85 -13 -145l-64 -664l-41 -305c-4.66699 -76.667 -38.667 -115 -102 -115c-266 102.667 -442 103.334 -528 2.00098c-16.667 -10.667 -32 -16 -46 -16
c-13.333 0 -25 5.33301 -35 16c-22.667 30.667 -34 62 -34 94c0 23.333 6.33301 47 19 71c10 38.667 51.667 78.834 125 120.501s214 32.167 422 -28.5l42 328c-70.667 -100.667 -169.834 -128.167 -297.501 -82.5s-177.167 171.5 -148.5 377.5
c3.33301 25.333 8.33301 50.333 15 75c40.667 166 76.334 274.333 107.001 325c22.667 37.333 52.667 56 90 56c12.667 0 26 -2 40 -6c56.667 -17.333 71.334 -54.666 44.001 -111.999c-53.333 -112 -85.333 -210.833 -96 -296.5s-8 -150.5 8 -194.5
c28 -78.667 115.667 -57.667 263 63l30 251l20 197c4.66699 40.667 49 66 133 76z" />
    <glyph glyph-name="z" unicode="z" horiz-adv-x="732" 
d="M677 990c26.667 -80.667 22.665 -145.669 -12.002 -195.002l-269 -357l-78 -93c92.667 22 176.334 36 251.001 42s110 -23.667 106 -89c-25.333 -93.333 -53.333 -139 -84 -137c-211.333 -4 -369 -27.667 -473 -71c-64 2 -89.333 64.667 -76 188
c29.333 72.667 154.333 240.334 375 503.001l-136 -8l-161 -21l-7 58l27 102c4 60.667 39.333 87.334 106 80.001s210.334 -8 431.001 -2z" />
    <glyph glyph-name="braceleft" unicode="{" horiz-adv-x="684" 
 />
    <glyph glyph-name="bar" unicode="|" horiz-adv-x="532" 
 />
    <glyph glyph-name="braceright" unicode="}" horiz-adv-x="684" 
 />
    <glyph glyph-name="asciitilde" unicode="~" horiz-adv-x="1196" 
 />
    <glyph glyph-name="exclamdown" unicode="&#xa1;" horiz-adv-x="614" 
d="M240 -39l-108.003 -7.99902c-4 -0.666992 -7.33301 -1 -10 -1c-41.333 0 -62 39 -62 117c0 56.667 10.667 133 32 229c52.667 242.667 99.334 498 140.001 766c74.667 13.333 131.334 -8.66699 170.001 -66c20 -140.667 -2.33301 -402.334 -67 -785.001l23 -84
c-23.333 -79.333 -62.666 -135.333 -117.999 -168zM181.997 1356c-4.66699 119.333 40.332 179.001 134.999 179.001c11.333 0 23 -0.666992 35 -2c110 -14.667 165 -66 165 -154c0 -9.33301 -0.666992 -19 -2 -29c-12 -106.667 -68.667 -165.834 -170 -177.501
s-155.666 49.5 -162.999 183.5z" />
    <glyph glyph-name="cent" unicode="&#xa2;" 
 />
    <glyph glyph-name="sterling" unicode="&#xa3;" 
 />
    <glyph glyph-name="currency" unicode="&#xa4;" 
 />
    <glyph glyph-name="yen" unicode="&#xa5;" 
 />
    <glyph glyph-name="brokenbar" unicode="&#xa6;" horiz-adv-x="532" 
 />
    <glyph glyph-name="section" unicode="&#xa7;" 
 />
    <glyph glyph-name="dieresis" unicode="&#xa8;" horiz-adv-x="592" 
d="M147 1439c12.667 4.66699 25 6.99902 37 6.99902c40 0 70.333 -28 91 -84c-18.667 -76 -48.667 -114 -90 -114c-42 0 -76.333 18.667 -103 56c-3.33301 14.667 -5 28.334 -5 41.001c0 46 23.333 77.333 70 94zM409 1439c12.667 4.66699 25 6.99902 37 6.99902
c40 0 70.333 -28 91 -84c-18.667 -76 -48.667 -114 -90 -114c-42 0 -76.333 18.667 -103 56c-3.33301 14.667 -5 28.334 -5 41.001c0 46 23.333 77.333 70 94z" />
    <glyph glyph-name="copyright" unicode="&#xa9;" horiz-adv-x="1509" 
 />
    <glyph glyph-name="ordfeminine" unicode="&#xaa;" horiz-adv-x="758" 
 />
    <glyph glyph-name="guillemotleft" unicode="&#xab;" 
 />
    <glyph glyph-name="logicalnot" unicode="&#xac;" horiz-adv-x="1196" 
 />
    <glyph glyph-name="registered" unicode="&#xae;" horiz-adv-x="1509" 
 />
    <glyph glyph-name="macron" unicode="&#xaf;" horiz-adv-x="1131" 
 />
    <glyph glyph-name="degree" unicode="&#xb0;" horiz-adv-x="819" 
 />
    <glyph glyph-name="plusminus" unicode="&#xb1;" horiz-adv-x="1124" 
 />
    <glyph glyph-name="uni00B2" unicode="&#xb2;" horiz-adv-x="682" 
 />
    <glyph glyph-name="uni00B3" unicode="&#xb3;" horiz-adv-x="682" 
 />
    <glyph glyph-name="acute" unicode="&#xb4;" horiz-adv-x="402" 
d="M377 1379c0 -16.667 -3.66699 -32.666 -11 -47.999l-190 -260l-41 -16l-31 26c-13.333 11.333 -20 30.666 -20 57.999c0 61.333 33.333 163.333 100 306c30 22.667 62 34 96 34c21.333 0 43.333 -4.33301 66 -13c20.667 -30.667 31 -59.667 31 -87z" />
    <glyph glyph-name="mu" unicode="&#xb5;" horiz-adv-x="1180" 
 />
    <glyph glyph-name="paragraph" unicode="&#xb6;" horiz-adv-x="1100" 
 />
    <glyph glyph-name="periodcentered" unicode="&#xb7;" horiz-adv-x="569" 
 />
    <glyph glyph-name="periodcentered" unicode="&#x2219;" horiz-adv-x="569" 
 />
    <glyph glyph-name="cedilla" unicode="&#xb8;" horiz-adv-x="400" 
d="M218 -380c-56 0 -116.669 46.001 -182.002 138.001c18.667 71.333 37.334 97.666 56.001 78.999c83.333 -96 133.166 -127.5 149.499 -94.5s-0.166992 71.333 -49.5 115s-73.166 88 -71.499 133s36.5 72.167 104.5 81.5l19 -61c0 -24 -8.16699 -36.167 -24.5 -36.5
s-15.833 -6.5 1.5 -18.5c44 -32 80 -72.667 108 -122c12 -34 14.333 -64.667 7 -92c0.666992 -48 -24.666 -85 -75.999 -111c-13.333 -7.33301 -27.333 -11 -42 -11z" />
    <glyph glyph-name="uni00B9" unicode="&#xb9;" horiz-adv-x="682" 
 />
    <glyph glyph-name="ordmasculine" unicode="&#xba;" horiz-adv-x="748" 
 />
    <glyph glyph-name="guillemotright" unicode="&#xbb;" 
 />
    <glyph glyph-name="onequarter" unicode="&#xbc;" horiz-adv-x="1708" 
 />
    <glyph glyph-name="onehalf" unicode="&#xbd;" horiz-adv-x="1708" 
 />
    <glyph glyph-name="threequarters" unicode="&#xbe;" horiz-adv-x="1708" 
 />
    <glyph glyph-name="questiondown" unicode="&#xbf;" horiz-adv-x="889" 
d="M216 -23c-138.667 60.667 -206.666 147.666 -203.999 260.999c-20.667 64.667 -15 137.667 17 219c77.333 115.333 175.666 211.333 294.999 288c46 28 46.833 42.167 2.5 42.5s-66.166 29.833 -65.499 88.5l52 143c184 -21.333 278.167 -85.5 282.5 -192.5
s-60.167 -212 -193.5 -315s-177.833 -193.667 -133.5 -272s179.5 -4.16602 405.5 222.501c49.333 45.333 99.666 -16.667 150.999 -186c-176.667 -216 -341.667 -324 -495 -324c-38.667 0 -76.667 8.33301 -114 25zM344.001 1312c-2 119.333 44.334 179.001 139.001 179.001
c11.333 0 23 -0.666992 35 -2c109.333 -14.667 163 -66 161 -154c0 -9.33301 -0.666992 -19 -2 -29c-14.667 -106.667 -72.834 -165.834 -174.501 -177.501s-154.5 49.5 -158.5 183.5z" />
    <glyph glyph-name="Agrave" unicode="&#xc0;" horiz-adv-x="858" 
d="M484 1353c46.667 55.333 90.002 83.001 130.002 83.001c28.667 0 56 -14.333 82 -43c78 -310 117 -605.667 117 -887c0 -104.667 -5.33301 -207.667 -16 -309l-24 -145c-34.667 -26.667 -68.667 -40 -102 -40c-13.333 0 -26.333 2.33301 -39 7
c-46 14 -61.333 57.333 -46 130s8.66602 195 -20.001 367c-199.333 -68 -343 -222.333 -431 -463l-58 -41h-19c-70.667 0 -106 30.667 -106 92v2l60 335c37.333 296 77.333 464.667 120 506c69.333 23.333 99.666 -0.666992 90.999 -72
c93.333 223.333 180.333 382.666 261 477.999zM398.002 700.001l-46 -90c62 48 138.667 97 230 147c-6 203.333 -22 296 -48 278c-42 -65.333 -87.333 -177 -136 -335zM372.002 1887c22.667 8.66699 44.667 12.999 66 12.999c34 0 66 -11.333 96 -34
c66.667 -142.667 100 -244.667 100 -306c0 -27.333 -6.66699 -46.666 -20 -57.999l-31 -26l-41 16l-190 260c-7.33301 15.333 -11 31.333 -11 48c0 27.333 10.333 56.333 31 87z" />
    <glyph glyph-name="Aacute" unicode="&#xc1;" horiz-adv-x="858" 
d="M484 1353c46.667 55.333 90.002 83.001 130.002 83.001c28.667 0 56 -14.333 82 -43c78 -310 117 -605.667 117 -887c0 -104.667 -5.33301 -207.667 -16 -309l-24 -145c-34.667 -26.667 -68.667 -40 -102 -40c-13.333 0 -26.333 2.33301 -39 7
c-46 14 -61.333 57.333 -46 130s8.66602 195 -20.001 367c-199.333 -68 -343 -222.333 -431 -463l-58 -41h-19c-70.667 0 -106 30.667 -106 92v2l60 335c37.333 296 77.333 464.667 120 506c69.333 23.333 99.666 -0.666992 90.999 -72
c93.333 223.333 180.333 382.666 261 477.999zM398.002 700.001l-46 -90c62 48 138.667 97 230 147c-6 203.333 -22 296 -48 278c-42 -65.333 -87.333 -177 -136 -335zM850.002 1809c0 -16.667 -3.66699 -32.666 -11 -47.999l-190 -260l-41 -16l-31 26
c-13.333 11.333 -20 30.666 -20 57.999c0 61.333 33.333 163.333 100 306c30 22.667 62 34 96 34c21.333 0 43.333 -4.33301 66 -13c20.667 -30.667 31 -59.667 31 -87z" />
    <glyph glyph-name="Acircumflex" unicode="&#xc2;" horiz-adv-x="858" 
d="M484 1353c46.667 55.333 90.002 83.001 130.002 83.001c28.667 0 56 -14.333 82 -43c78 -310 117 -605.667 117 -887c0 -104.667 -5.33301 -207.667 -16 -309l-24 -145c-34.667 -26.667 -68.667 -40 -102 -40c-13.333 0 -26.333 2.33301 -39 7
c-46 14 -61.333 57.333 -46 130s8.66602 195 -20.001 367c-199.333 -68 -343 -222.333 -431 -463l-58 -41h-19c-70.667 0 -106 30.667 -106 92v2l60 335c37.333 296 77.333 464.667 120 506c69.333 23.333 99.666 -0.666992 90.999 -72
c93.333 223.333 180.333 382.666 261 477.999zM398.002 700.001l-46 -90c62 48 138.667 97 230 147c-6 203.333 -22 296 -48 278c-42 -65.333 -87.333 -177 -136 -335zM609.002 1690c-80.667 -184.667 -144.669 -270.665 -192.002 -257.998l-39 10l-24 64
c72 200 130.333 338.667 175 416c-9.33301 43.333 -7.66602 68.666 5.00098 75.999l35 20l94 -43l56 -97c102.667 -244 129.334 -380 80.001 -408l-34 -20l-63 29c-36.667 79.333 -67.667 149.666 -93 210.999z" />
    <glyph glyph-name="Atilde" unicode="&#xc3;" horiz-adv-x="858" 
d="M484 1353c46.667 55.333 90.002 83.001 130.002 83.001c28.667 0 56 -14.333 82 -43c78 -310 117 -605.667 117 -887c0 -104.667 -5.33301 -207.667 -16 -309l-24 -145c-34.667 -26.667 -68.667 -40 -102 -40c-13.333 0 -26.333 2.33301 -39 7
c-46 14 -61.333 57.333 -46 130s8.66602 195 -20.001 367c-199.333 -68 -343 -222.333 -431 -463l-58 -41h-19c-70.667 0 -106 30.667 -106 92v2l60 335c37.333 296 77.333 464.667 120 506c69.333 23.333 99.666 -0.666992 90.999 -72
c93.333 223.333 180.333 382.666 261 477.999zM398.002 700.001l-46 -90c62 48 138.667 97 230 147c-6 203.333 -22 296 -48 278c-42 -65.333 -87.333 -177 -136 -335zM474.002 1797h12.002c67.333 0 111.666 -36 132.999 -108c42.667 -72 75.667 -61.333 99 32
c-6 44.667 5.33301 71 34 79h39c19.333 0 32 -11.333 38 -34l-7 -49c-5.33301 -86 -42 -144.333 -110 -175c-18.667 -8.66699 -40.667 -10.667 -66 -6c-42.667 0 -76.334 29.667 -101.001 89c-48 81.333 -77.667 77.333 -89 -12l-20 -72
c-15.333 -6.66699 -29.333 -10 -42 -10c-23.333 0 -42.333 11.667 -57 35c33.333 148.667 79 225.667 137 231z" />
    <glyph glyph-name="Adieresis" unicode="&#xc4;" horiz-adv-x="858" 
d="M484 1353c46.667 55.333 90.002 83.001 130.002 83.001c28.667 0 56 -14.333 82 -43c78 -310 117 -605.667 117 -887c0 -104.667 -5.33301 -207.667 -16 -309l-24 -145c-34.667 -26.667 -68.667 -40 -102 -40c-13.333 0 -26.333 2.33301 -39 7
c-46 14 -61.333 57.333 -46 130s8.66602 195 -20.001 367c-199.333 -68 -343 -222.333 -431 -463l-58 -41h-19c-70.667 0 -106 30.667 -106 92v2l60 335c37.333 296 77.333 464.667 120 506c69.333 23.333 99.666 -0.666992 90.999 -72
c93.333 223.333 180.333 382.666 261 477.999zM398.002 700.001l-46 -90c62 48 138.667 97 230 147c-6 203.333 -22 296 -48 278c-42 -65.333 -87.333 -177 -136 -335zM422.002 1748c12.667 4.66699 25 6.99902 37 6.99902c40 0 70.333 -28 91 -84
c-18.667 -76 -48.667 -114 -90 -114c-42 0 -76.333 18.667 -103 56c-3.33301 14.667 -5 28.334 -5 41.001c0 46 23.333 77.333 70 94zM684.002 1748c12.667 4.66699 25 6.99902 37 6.99902c40 0 70.333 -28 91 -84c-18.667 -76 -48.667 -114 -90 -114
c-42 0 -76.333 18.667 -103 56c-3.33301 14.667 -5 28.334 -5 41.001c0 46 23.333 77.333 70 94z" />
    <glyph glyph-name="Aring" unicode="&#xc5;" horiz-adv-x="1366" 
 />
    <glyph glyph-name="AE" unicode="&#xc6;" horiz-adv-x="2048" 
 />
    <glyph glyph-name="Ccedilla" unicode="&#xc7;" horiz-adv-x="777" 
d="M695 1394c54.667 -5.33301 81.332 -29.833 79.999 -73.5s-24 -93.5 -68 -149.5c-108 -18 -200.333 -68 -277 -150s-132.834 -214.833 -168.501 -398.5s-20.667 -306.5 45 -368.5s192.834 -28 381.501 102c36 17.333 53.333 -2.66699 52 -60s-17.333 -104.333 -48 -141
c-81.333 -77.333 -164.5 -126.666 -249.5 -147.999s-173.833 -11.666 -266.5 29.001c-35.333 17.333 -69.166 64.333 -101.499 141s-52 158 -59 244s7.83301 211.167 44.5 375.5s113 301.166 229 410.499s251.333 171.666 406 186.999zM445.998 -380
c-56 0 -116.669 46.001 -182.002 138.001c18.667 71.333 37.334 97.666 56.001 78.999c83.333 -96 133.166 -127.5 149.499 -94.5s-0.166992 71.333 -49.5 115s-73.166 88 -71.499 133s36.5 72.167 104.5 81.5l19 -61c0 -24 -8.16699 -36.167 -24.5 -36.5
s-15.833 -6.5 1.5 -18.5c44 -32 80 -72.667 108 -122c12 -34 14.333 -64.667 7 -92c0.666992 -48 -24.666 -85 -75.999 -111c-13.333 -7.33301 -27.333 -11 -42 -11z" />
    <glyph glyph-name="Egrave" unicode="&#xc8;" horiz-adv-x="745" 
d="M243 513l-28.002 -95.998c-13.333 -123.333 26.334 -160.666 119.001 -111.999l199 84l20 -28h20l79 28v-28l-20 -28l20 -28v-28c-173.333 -186.667 -325.666 -280 -456.999 -280h-40c-92.667 34 -134 123 -124 267c60 494.667 101.333 779 124 853
c0 37.333 9.83301 88.666 29.5 153.999s56.167 88.666 109.5 69.999l54 -56c56.667 40 117.667 68 183 84s127.333 16 186 0c21.333 -46 12.666 -130.333 -26.001 -253c-250.667 -36.667 -376 -89.334 -376 -158.001l-33 -181l235 60c56.667 0 71.334 -56.333 44.001 -169
c-34.667 -56 -140.667 -107.667 -318 -155zM345.998 1850c22.667 8.66699 44.667 12.999 66 12.999c34 0 66 -11.333 96 -34c66.667 -142.667 100 -244.667 100 -306c0 -27.333 -6.66699 -46.666 -20 -57.999l-31 -26l-41 16l-190 260c-7.33301 15.333 -11 31.333 -11 48
c0 27.333 10.333 56.333 31 87z" />
    <glyph glyph-name="Eacute" unicode="&#xc9;" horiz-adv-x="745" 
d="M243 513l-28.002 -95.998c-13.333 -123.333 26.334 -160.666 119.001 -111.999l199 84l20 -28h20l79 28v-28l-20 -28l20 -28v-28c-173.333 -186.667 -325.666 -280 -456.999 -280h-40c-92.667 34 -134 123 -124 267c60 494.667 101.333 779 124 853
c0 37.333 9.83301 88.666 29.5 153.999s56.167 88.666 109.5 69.999l54 -56c56.667 40 117.667 68 183 84s127.333 16 186 0c21.333 -46 12.666 -130.333 -26.001 -253c-250.667 -36.667 -376 -89.334 -376 -158.001l-33 -181l235 60c56.667 0 71.334 -56.333 44.001 -169
c-34.667 -56 -140.667 -107.667 -318 -155zM634.998 1740c0 -16.667 -3.66699 -32.666 -11 -47.999l-190 -260l-41 -16l-31 26c-13.333 11.333 -20 30.666 -20 57.999c0 61.333 33.333 163.333 100 306c30 22.667 62 34 96 34c21.333 0 43.333 -4.33301 66 -13
c20.667 -30.667 31 -59.667 31 -87z" />
    <glyph glyph-name="Ecircumflex" unicode="&#xca;" horiz-adv-x="745" 
d="M243 513l-28.002 -95.998c-13.333 -123.333 26.334 -160.666 119.001 -111.999l199 84l20 -28h20l79 28v-28l-20 -28l20 -28v-28c-173.333 -186.667 -325.666 -280 -456.999 -280h-40c-92.667 34 -134 123 -124 267c60 494.667 101.333 779 124 853
c0 37.333 9.83301 88.666 29.5 153.999s56.167 88.666 109.5 69.999l54 -56c56.667 40 117.667 68 183 84s127.333 16 186 0c21.333 -46 12.666 -130.333 -26.001 -253c-250.667 -36.667 -376 -89.334 -376 -158.001l-33 -181l235 60c56.667 0 71.334 -56.333 44.001 -169
c-34.667 -56 -140.667 -107.667 -318 -155zM485.998 1680c-80.667 -184.667 -144.669 -270.665 -192.002 -257.998l-39 10l-24 64c72 200 130.333 338.667 175 416c-9.33301 43.333 -7.66602 68.666 5.00098 75.999l35 20l94 -43l56 -97
c102.667 -244 129.334 -380 80.001 -408l-34 -20l-63 29c-36.667 79.333 -67.667 149.666 -93 210.999z" />
    <glyph glyph-name="Edieresis" unicode="&#xcb;" horiz-adv-x="745" 
d="M243 513l-28.002 -95.998c-13.333 -123.333 26.334 -160.666 119.001 -111.999l199 84l20 -28h20l79 28v-28l-20 -28l20 -28v-28c-173.333 -186.667 -325.666 -280 -456.999 -280h-40c-92.667 34 -134 123 -124 267c60 494.667 101.333 779 124 853
c0 37.333 9.83301 88.666 29.5 153.999s56.167 88.666 109.5 69.999l54 -56c56.667 40 117.667 68 183 84s127.333 16 186 0c21.333 -46 12.666 -130.333 -26.001 -253c-250.667 -36.667 -376 -89.334 -376 -158.001l-33 -181l235 60c56.667 0 71.334 -56.333 44.001 -169
c-34.667 -56 -140.667 -107.667 -318 -155zM340.998 1748c12.667 4.66699 25 6.99902 37 6.99902c40 0 70.333 -28 91 -84c-18.667 -76 -48.667 -114 -90 -114c-42 0 -76.333 18.667 -103 56c-3.33301 14.667 -5 28.334 -5 41.001c0 46 23.333 77.333 70 94zM602.998 1748
c12.667 4.66699 25 6.99902 37 6.99902c40 0 70.333 -28 91 -84c-18.667 -76 -48.667 -114 -90 -114c-42 0 -76.333 18.667 -103 56c-3.33301 14.667 -5 28.334 -5 41.001c0 46 23.333 77.333 70 94z" />
    <glyph glyph-name="Igrave" unicode="&#xcc;" horiz-adv-x="548" 
d="M150 268l0.000976562 47l73 786c-62.667 -11.333 -99.334 11 -110.001 67v28c0 112 21.667 167.333 65 166l329 22c27.333 -12 34 -53.333 20 -124c-5.33301 -78.667 -47 -120.334 -125 -125.001l-13 -149c-32 -338 -59.667 -570.333 -83 -697l45 6
c33.333 -8 55.5 -25.167 66.5 -51.5s1.16699 -94.166 -29.5 -203.499c-219.333 -47.333 -336.333 -46 -351 4l30 213zM189.001 1841c22.667 8.66699 44.667 12.999 66 12.999c34 0 66 -11.333 96 -34c66.667 -142.667 100 -244.667 100 -306
c0 -27.333 -6.66699 -46.666 -20 -57.999l-31 -26l-41 16l-190 260c-7.33301 15.333 -11 31.333 -11 48c0 27.333 10.333 56.333 31 87z" />
    <glyph glyph-name="Iacute" unicode="&#xcd;" horiz-adv-x="548" 
d="M150 268l0.000976562 47l73 786c-62.667 -11.333 -99.334 11 -110.001 67v28c0 112 21.667 167.333 65 166l329 22c27.333 -12 34 -53.333 20 -124c-5.33301 -78.667 -47 -120.334 -125 -125.001l-13 -149c-32 -338 -59.667 -570.333 -83 -697l45 6
c33.333 -8 55.5 -25.167 66.5 -51.5s1.16699 -94.166 -29.5 -203.499c-219.333 -47.333 -336.333 -46 -351 4l30 213zM564.001 1763c0 -16.667 -3.66699 -32.666 -11 -47.999l-190 -260l-41 -16l-31 26c-13.333 11.333 -20 30.666 -20 57.999
c0 61.333 33.333 163.333 100 306c30 22.667 62 34 96 34c21.333 0 43.333 -4.33301 66 -13c20.667 -30.667 31 -59.667 31 -87z" />
    <glyph glyph-name="Icircumflex" unicode="&#xce;" horiz-adv-x="548" 
d="M150 268l0.000976562 47l73 786c-62.667 -11.333 -99.334 11 -110.001 67v28c0 112 21.667 167.333 65 166l329 22c27.333 -12 34 -53.333 20 -124c-5.33301 -78.667 -47 -120.334 -125 -125.001l-13 -149c-32 -338 -59.667 -570.333 -83 -697l45 6
c33.333 -8 55.5 -25.167 66.5 -51.5s1.16699 -94.166 -29.5 -203.499c-219.333 -47.333 -336.333 -46 -351 4l30 213zM350.001 1676c-80.667 -184.667 -144.669 -270.665 -192.002 -257.998l-39 10l-24 64c72 200 130.333 338.667 175 416
c-9.33301 43.333 -7.66602 68.666 5.00098 75.999l35 20l94 -43l56 -97c102.667 -244 129.334 -380 80.001 -408l-34 -20l-63 29c-36.667 79.333 -67.667 149.666 -93 210.999z" />
    <glyph glyph-name="Idieresis" unicode="&#xcf;" horiz-adv-x="548" 
d="M150 268l0.000976562 47l73 786c-62.667 -11.333 -99.334 11 -110.001 67v28c0 112 21.667 167.333 65 166l329 22c27.333 -12 34 -53.333 20 -124c-5.33301 -78.667 -47 -120.334 -125 -125.001l-13 -149c-32 -338 -59.667 -570.333 -83 -697l45 6
c33.333 -8 55.5 -25.167 66.5 -51.5s1.16699 -94.166 -29.5 -203.499c-219.333 -47.333 -336.333 -46 -351 4l30 213zM182.001 1753c12.667 4.66699 25 6.99902 37 6.99902c40 0 70.333 -28 91 -84c-18.667 -76 -48.667 -114 -90 -114c-42 0 -76.333 18.667 -103 56
c-3.33301 14.667 -5 28.334 -5 41.001c0 46 23.333 77.333 70 94zM444.001 1753c12.667 4.66699 25 6.99902 37 6.99902c40 0 70.333 -28 91 -84c-18.667 -76 -48.667 -114 -90 -114c-42 0 -76.333 18.667 -103 56c-3.33301 14.667 -5 28.334 -5 41.001
c0 46 23.333 77.333 70 94z" />
    <glyph glyph-name="Eth" unicode="&#xd0;" horiz-adv-x="1479" 
 />
    <glyph glyph-name="Ntilde" unicode="&#xd1;" horiz-adv-x="935" 
d="M839 1417l24 -20.999v33l64 15l-36 -416l-90 -878c-2 -72 -19 -111.333 -51 -118l-124 -34c-97.333 218 -210.666 502 -339.999 852c-24.667 -366 -56 -625.667 -94 -779c-20 -43.333 -58.333 -67 -115 -71s-81 27 -73 93c66 447.333 110.667 759.333 134 936
c-9.33301 24 -18 63.5 -26 118.5s18.333 130.167 79 225.5l51 51c19.333 17.333 35.666 16.333 48.999 -3l349 -954l40 320c23.333 433.333 71.333 651.666 144 654.999zM468 1782h12.002c67.333 0 111.666 -36 132.999 -108c42.667 -72 75.667 -61.333 99 32
c-6 44.667 5.33301 71 34 79h39c19.333 0 32 -11.333 38 -34l-7 -49c-5.33301 -86 -42 -144.333 -110 -175c-18.667 -8.66699 -40.667 -10.667 -66 -6c-42.667 0 -76.334 29.667 -101.001 89c-48 81.333 -77.667 77.333 -89 -12l-20 -72
c-15.333 -6.66699 -29.333 -10 -42 -10c-23.333 0 -42.333 11.667 -57 35c33.333 148.667 79 225.667 137 231z" />
    <glyph glyph-name="Ograve" unicode="&#xd2;" horiz-adv-x="971" 
d="M476 1367c5.33301 2 10.333 3 15 3c32 0 37.667 -54.333 17 -163l32 95c274 -48 411 -221.667 411 -521c0 -18.667 -0.666992 -37.667 -2 -57c-36 -450 -220.333 -686.667 -553 -710c-237.333 34.667 -356 170.667 -356 408c0 14 0.333008 28.333 1 43
c14.667 264 73.167 474.333 175.5 631s188.833 247 259.5 271zM257 590c-14.667 -256 56.002 -374.334 212.002 -355.001c150 62.667 239.667 221.334 269 476.001c19.333 200 -34.334 326.5 -161.001 379.5s-233.334 -113.833 -320.001 -500.5zM472.002 1831
c22.667 8.66699 44.667 12.999 66 12.999c34 0 66 -11.333 96 -34c66.667 -142.667 100 -244.667 100 -306c0 -27.333 -6.66699 -46.666 -20 -57.999l-31 -26l-41 16l-190 260c-7.33301 15.333 -11 31.333 -11 48c0 27.333 10.333 56.333 31 87z" />
    <glyph glyph-name="Oacute" unicode="&#xd3;" horiz-adv-x="971" 
d="M476 1367c5.33301 2 10.333 3 15 3c32 0 37.667 -54.333 17 -163l32 95c274 -48 411 -221.667 411 -521c0 -18.667 -0.666992 -37.667 -2 -57c-36 -450 -220.333 -686.667 -553 -710c-237.333 34.667 -356 170.667 -356 408c0 14 0.333008 28.333 1 43
c14.667 264 73.167 474.333 175.5 631s188.833 247 259.5 271zM257 590c-14.667 -256 56.002 -374.334 212.002 -355.001c150 62.667 239.667 221.334 269 476.001c19.333 200 -34.334 326.5 -161.001 379.5s-233.334 -113.833 -320.001 -500.5zM823.002 1749
c0 -16.667 -3.66699 -32.666 -11 -47.999l-190 -260l-41 -16l-31 26c-13.333 11.333 -20 30.666 -20 57.999c0 61.333 33.333 163.333 100 306c30 22.667 62 34 96 34c21.333 0 43.333 -4.33301 66 -13c20.667 -30.667 31 -59.667 31 -87z" />
    <glyph glyph-name="Ocircumflex" unicode="&#xd4;" horiz-adv-x="971" 
d="M476 1367c5.33301 2 10.333 3 15 3c32 0 37.667 -54.333 17 -163l32 95c274 -48 411 -221.667 411 -521c0 -18.667 -0.666992 -37.667 -2 -57c-36 -450 -220.333 -686.667 -553 -710c-237.333 34.667 -356 170.667 -356 408c0 14 0.333008 28.333 1 43
c14.667 264 73.167 474.333 175.5 631s188.833 247 259.5 271zM257 590c-14.667 -256 56.002 -374.334 212.002 -355.001c150 62.667 239.667 221.334 269 476.001c19.333 200 -34.334 326.5 -161.001 379.5s-233.334 -113.833 -320.001 -500.5zM556.002 1617
c-80.667 -184.667 -144.669 -270.665 -192.002 -257.998l-39 10l-24 64c72 200 130.333 338.667 175 416c-9.33301 43.333 -7.66602 68.666 5.00098 75.999l35 20l94 -43l56 -97c102.667 -244 129.334 -380 80.001 -408l-34 -20l-63 29
c-36.667 79.333 -67.667 149.666 -93 210.999z" />
    <glyph glyph-name="Otilde" unicode="&#xd5;" horiz-adv-x="971" 
d="M476 1367c5.33301 2 10.333 3 15 3c32 0 37.667 -54.333 17 -163l32 95c274 -48 411 -221.667 411 -521c0 -18.667 -0.666992 -37.667 -2 -57c-36 -450 -220.333 -686.667 -553 -710c-237.333 34.667 -356 170.667 -356 408c0 14 0.333008 28.333 1 43
c14.667 264 73.167 474.333 175.5 631s188.833 247 259.5 271zM257 590c-14.667 -256 56.002 -374.334 212.002 -355.001c150 62.667 239.667 221.334 269 476.001c19.333 200 -34.334 326.5 -161.001 379.5s-233.334 -113.833 -320.001 -500.5zM523.002 1778h12.002
c67.333 0 111.666 -36 132.999 -108c42.667 -72 75.667 -61.333 99 32c-6 44.667 5.33301 71 34 79h39c19.333 0 32 -11.333 38 -34l-7 -49c-5.33301 -86 -42 -144.333 -110 -175c-18.667 -8.66699 -40.667 -10.667 -66 -6c-42.667 0 -76.334 29.667 -101.001 89
c-48 81.333 -77.667 77.333 -89 -12l-20 -72c-15.333 -6.66699 -29.333 -10 -42 -10c-23.333 0 -42.333 11.667 -57 35c33.333 148.667 79 225.667 137 231z" />
    <glyph glyph-name="Odieresis" unicode="&#xd6;" horiz-adv-x="971" 
d="M476 1367c5.33301 2 10.333 3 15 3c32 0 37.667 -54.333 17 -163l32 95c274 -48 411 -221.667 411 -521c0 -18.667 -0.666992 -37.667 -2 -57c-36 -450 -220.333 -686.667 -553 -710c-237.333 34.667 -356 170.667 -356 408c0 14 0.333008 28.333 1 43
c14.667 264 73.167 474.333 175.5 631s188.833 247 259.5 271zM257 590c-14.667 -256 56.002 -374.334 212.002 -355.001c150 62.667 239.667 221.334 269 476.001c19.333 200 -34.334 326.5 -161.001 379.5s-233.334 -113.833 -320.001 -500.5zM438.002 1747
c12.667 4.66699 25 6.99902 37 6.99902c40 0 70.333 -28 91 -84c-18.667 -76 -48.667 -114 -90 -114c-42 0 -76.333 18.667 -103 56c-3.33301 14.667 -5 28.334 -5 41.001c0 46 23.333 77.333 70 94zM700.002 1747c12.667 4.66699 25 6.99902 37 6.99902
c40 0 70.333 -28 91 -84c-18.667 -76 -48.667 -114 -90 -114c-42 0 -76.333 18.667 -103 56c-3.33301 14.667 -5 28.334 -5 41.001c0 46 23.333 77.333 70 94z" />
    <glyph glyph-name="multiply" unicode="&#xd7;" horiz-adv-x="1196" 
 />
    <glyph glyph-name="Oslash" unicode="&#xd8;" horiz-adv-x="1593" 
 />
    <glyph glyph-name="Ugrave" unicode="&#xd9;" horiz-adv-x="919" 
d="M877 1274c11.333 -297.333 7.16699 -558.837 -12.5 -784.504s-101.5 -364.5 -245.5 -416.5c-172.667 -66.667 -315.334 -72.667 -428.001 -18s-161.667 221 -147 499c45.333 424.667 127.333 697.334 246 818.001c84 10.667 128.333 -9.66602 133 -60.999
c-70 -207.333 -120 -440.666 -150 -699.999c-26 -248 17.667 -365 131 -351c138.667 2.66699 222.5 87.5 251.5 254.5s36.833 400.167 23.5 699.5c-13.333 70 12.834 109.833 78.501 119.5s105.5 -10.166 119.5 -59.499zM416.001 1826
c22.667 8.66699 44.667 12.999 66 12.999c34 0 66 -11.333 96 -34c66.667 -142.667 100 -244.667 100 -306c0 -27.333 -6.66699 -46.666 -20 -57.999l-31 -26l-41 16l-190 260c-7.33301 15.333 -11 31.333 -11 48c0 27.333 10.333 56.333 31 87z" />
    <glyph glyph-name="Uacute" unicode="&#xda;" horiz-adv-x="919" 
d="M877 1274c11.333 -297.333 7.16699 -558.837 -12.5 -784.504s-101.5 -364.5 -245.5 -416.5c-172.667 -66.667 -315.334 -72.667 -428.001 -18s-161.667 221 -147 499c45.333 424.667 127.333 697.334 246 818.001c84 10.667 128.333 -9.66602 133 -60.999
c-70 -207.333 -120 -440.666 -150 -699.999c-26 -248 17.667 -365 131 -351c138.667 2.66699 222.5 87.5 251.5 254.5s36.833 400.167 23.5 699.5c-13.333 70 12.834 109.833 78.501 119.5s105.5 -10.166 119.5 -59.499zM789.001 1740
c0 -16.667 -3.66699 -32.666 -11 -47.999l-190 -260l-41 -16l-31 26c-13.333 11.333 -20 30.666 -20 57.999c0 61.333 33.333 163.333 100 306c30 22.667 62 34 96 34c21.333 0 43.333 -4.33301 66 -13c20.667 -30.667 31 -59.667 31 -87z" />
    <glyph glyph-name="Ucircumflex" unicode="&#xdb;" horiz-adv-x="919" 
d="M877 1274c11.333 -297.333 7.16699 -558.837 -12.5 -784.504s-101.5 -364.5 -245.5 -416.5c-172.667 -66.667 -315.334 -72.667 -428.001 -18s-161.667 221 -147 499c45.333 424.667 127.333 697.334 246 818.001c84 10.667 128.333 -9.66602 133 -60.999
c-70 -207.333 -120 -440.666 -150 -699.999c-26 -248 17.667 -365 131 -351c138.667 2.66699 222.5 87.5 251.5 254.5s36.833 400.167 23.5 699.5c-13.333 70 12.834 109.833 78.501 119.5s105.5 -10.166 119.5 -59.499zM619.001 1695
c-80.667 -184.667 -144.669 -270.665 -192.002 -257.998l-39 10l-24 64c72 200 130.333 338.667 175 416c-9.33301 43.333 -7.66602 68.666 5.00098 75.999l35 20l94 -43l56 -97c102.667 -244 129.334 -380 80.001 -408l-34 -20l-63 29
c-36.667 79.333 -67.667 149.666 -93 210.999z" />
    <glyph glyph-name="Udieresis" unicode="&#xdc;" horiz-adv-x="919" 
d="M877 1274c11.333 -297.333 7.16699 -558.837 -12.5 -784.504s-101.5 -364.5 -245.5 -416.5c-172.667 -66.667 -315.334 -72.667 -428.001 -18s-161.667 221 -147 499c45.333 424.667 127.333 697.334 246 818.001c84 10.667 128.333 -9.66602 133 -60.999
c-70 -207.333 -120 -440.666 -150 -699.999c-26 -248 17.667 -365 131 -351c138.667 2.66699 222.5 87.5 251.5 254.5s36.833 400.167 23.5 699.5c-13.333 70 12.834 109.833 78.501 119.5s105.5 -10.166 119.5 -59.499zM427.001 1739c12.667 4.66699 25 6.99902 37 6.99902
c40 0 70.333 -28 91 -84c-18.667 -76 -48.667 -114 -90 -114c-42 0 -76.333 18.667 -103 56c-3.33301 14.667 -5 28.334 -5 41.001c0 46 23.333 77.333 70 94zM689.001 1739c12.667 4.66699 25 6.99902 37 6.99902c40 0 70.333 -28 91 -84
c-18.667 -76 -48.667 -114 -90 -114c-42 0 -76.333 18.667 -103 56c-3.33301 14.667 -5 28.334 -5 41.001c0 46 23.333 77.333 70 94z" />
    <glyph glyph-name="Yacute" unicode="&#xdd;" horiz-adv-x="1366" 
 />
    <glyph glyph-name="Thorn" unicode="&#xde;" horiz-adv-x="1366" 
 />
    <glyph glyph-name="germandbls" unicode="&#xdf;" horiz-adv-x="867" 
d="M827 1081c0 -23.333 -6.33398 -48.6689 -19.001 -76.002l-104 -87c-128 -43.333 -128 -100.333 0 -171c107.333 -44 159.666 -143 156.999 -297c8 -46 4.33301 -85.667 -11 -119c-55.333 -123.333 -161.333 -190 -318 -200l-88 -13c-40.667 11.333 -61 34 -61 68v72
c14 51.333 84.333 77.333 211 78c128.667 79.333 123.5 171.333 -15.5 276s-201.5 185.667 -187.5 243c0 6.66699 0.333008 13.667 1 21c8.66699 100.667 57.834 164.167 147.501 190.5s110.334 71.333 62.001 135s-89.166 88.167 -122.499 73.5
c-40 -17.333 -75 -44.666 -105 -81.999l-104 -896c-6 -89.333 -36 -141.666 -90 -156.999c-10.667 -2 -20.334 -3 -29.001 -3c-58 0 -86.667 44 -86 132c0.666992 1.33301 1 2.33301 1 3l112 873c0.666992 38.667 8.33398 69.334 23.001 92.001
c5.33301 18.667 11.666 37.667 18.999 57c90 110.667 158.833 168.167 206.5 172.5s73.167 6.5 76.5 6.5c42 6 95.333 -9.66699 160 -47c60 -36 102.333 -95.833 127 -179.5s37 -138.834 37 -165.501z" />
    <glyph glyph-name="agrave" unicode="&#xe0;" horiz-adv-x="813" 
d="M524 227c-48.667 -69.333 -110.669 -104 -186.002 -104c-34.667 0 -71.667 7.33301 -111 22c-104.667 37.333 -157 128 -157 272c0 32 2.66699 67 8 105c28 205.333 157.333 358 388 458c32.667 10.667 61.334 16 86.001 16c50.667 0 83.334 -22.667 98.001 -68l82 28
c31.333 12 47 -17 47 -87c0 -36.667 -4.33301 -85 -13 -145l-55 -575c-92 -46.667 -155 -40.667 -189 18zM548.998 432l34 270.999c-10 61.333 -49.667 78.333 -119 51s-123.333 -78.666 -162 -153.999s-44 -152.333 -16 -231s115.667 -57.667 263 63zM369.998 1466
c22.667 8.66699 44.667 12.999 66 12.999c34 0 66 -11.333 96 -34c66.667 -142.667 100 -244.667 100 -306c0 -27.333 -6.66699 -46.666 -20 -57.999l-31 -26l-41 16l-190 260c-7.33301 15.333 -11 31.333 -11 48c0 27.333 10.333 56.333 31 87z" />
    <glyph glyph-name="aacute" unicode="&#xe1;" horiz-adv-x="813" 
d="M521 227c-48.667 -69.333 -110.669 -104 -186.002 -104c-34.667 0 -71.667 7.33301 -111 22c-104.667 37.333 -157 128 -157 272c0 32 2.66699 67 8 105c28 205.333 157.333 358 388 458c32.667 10.667 61.334 16 86.001 16c50.667 0 83.334 -22.667 98.001 -68l82 28
c31.333 12 47 -17 47 -87c0 -36.667 -4.33301 -85 -13 -145l-55 -575c-92 -46.667 -155 -40.667 -189 18zM545.998 432l34 270.999c-10 61.333 -49.667 78.333 -119 51s-123.333 -78.666 -162 -153.999s-44 -152.333 -16 -231s115.667 -57.667 263 63zM720.998 1379
c0 -16.667 -3.66699 -32.666 -11 -47.999l-190 -260l-41 -16l-31 26c-13.333 11.333 -20 30.666 -20 57.999c0 61.333 33.333 163.333 100 306c30 22.667 62 34 96 34c21.333 0 43.333 -4.33301 66 -13c20.667 -30.667 31 -59.667 31 -87z" />
    <glyph glyph-name="acircumflex" unicode="&#xe2;" horiz-adv-x="813" 
d="M521 227c-48.667 -69.333 -110.669 -104 -186.002 -104c-34.667 0 -71.667 7.33301 -111 22c-104.667 37.333 -157 128 -157 272c0 32 2.66699 67 8 105c28 205.333 157.333 358 388 458c32.667 10.667 61.334 16 86.001 16c50.667 0 83.334 -22.667 98.001 -68l82 28
c31.333 12 47 -17 47 -87c0 -36.667 -4.33301 -85 -13 -145l-55 -575c-92 -46.667 -155 -40.667 -189 18zM545.998 432l34 270.999c-10 61.333 -49.667 78.333 -119 51s-123.333 -78.666 -162 -153.999s-44 -152.333 -16 -231s115.667 -57.667 263 63zM537.998 1273
c-80.667 -184.667 -144.669 -270.665 -192.002 -257.998l-39 10l-24 64c72 200 130.333 338.667 175 416c-9.33301 43.333 -7.66602 68.666 5.00098 75.999l35 20l94 -43l56 -97c102.667 -244 129.334 -380 80.001 -408l-34 -20l-63 29
c-36.667 79.333 -67.667 149.666 -93 210.999z" />
    <glyph glyph-name="atilde" unicode="&#xe3;" horiz-adv-x="813" 
d="M521 227c-48.667 -69.333 -110.669 -104 -186.002 -104c-34.667 0 -71.667 7.33301 -111 22c-104.667 37.333 -157 128 -157 272c0 32 2.66699 67 8 105c28 205.333 157.333 358 388 458c32.667 10.667 61.334 16 86.001 16c50.667 0 83.334 -22.667 98.001 -68l82 28
c31.333 12 47 -17 47 -87c0 -36.667 -4.33301 -85 -13 -145l-55 -575c-92 -46.667 -155 -40.667 -189 18zM545.998 432l34 270.999c-10 61.333 -49.667 78.333 -119 51s-123.333 -78.666 -162 -153.999s-44 -152.333 -16 -231s115.667 -57.667 263 63zM419.998 1478h12.002
c67.333 0 111.666 -36 132.999 -108c42.667 -72 75.667 -61.333 99 32c-6 44.667 5.33301 71 34 79h39c19.333 0 32 -11.333 38 -34l-7 -49c-5.33301 -86 -42 -144.333 -110 -175c-18.667 -8.66699 -40.667 -10.667 -66 -6c-42.667 0 -76.334 29.667 -101.001 89
c-48 81.333 -77.667 77.333 -89 -12l-20 -72c-15.333 -6.66699 -29.333 -10 -42 -10c-23.333 0 -42.333 11.667 -57 35c33.333 148.667 79 225.667 137 231z" />
    <glyph glyph-name="adieresis" unicode="&#xe4;" horiz-adv-x="813" 
d="M521 227c-48.667 -69.333 -110.669 -104 -186.002 -104c-34.667 0 -71.667 7.33301 -111 22c-104.667 37.333 -157 128 -157 272c0 32 2.66699 67 8 105c28 205.333 157.333 358 388 458c32.667 10.667 61.334 16 86.001 16c50.667 0 83.334 -22.667 98.001 -68l82 28
c31.333 12 47 -17 47 -87c0 -36.667 -4.33301 -85 -13 -145l-55 -575c-92 -46.667 -155 -40.667 -189 18zM545.998 432l34 270.999c-10 61.333 -49.667 78.333 -119 51s-123.333 -78.666 -162 -153.999s-44 -152.333 -16 -231s115.667 -57.667 263 63zM361.998 1439
c12.667 4.66699 25 6.99902 37 6.99902c40 0 70.333 -28 91 -84c-18.667 -76 -48.667 -114 -90 -114c-42 0 -76.333 18.667 -103 56c-3.33301 14.667 -5 28.334 -5 41.001c0 46 23.333 77.333 70 94zM623.998 1439c12.667 4.66699 25 6.99902 37 6.99902
c40 0 70.333 -28 91 -84c-18.667 -76 -48.667 -114 -90 -114c-42 0 -76.333 18.667 -103 56c-3.33301 14.667 -5 28.334 -5 41.001c0 46 23.333 77.333 70 94z" />
    <glyph glyph-name="aring" unicode="&#xe5;" 
 />
    <glyph glyph-name="ae" unicode="&#xe6;" horiz-adv-x="1821" 
 />
    <glyph glyph-name="ccedilla" unicode="&#xe7;" horiz-adv-x="664" 
d="M327 127c-12 -0.666992 -23.3311 -1.00195 -33.998 -1.00195c-134 0 -218.333 63.333 -253 190c-15.333 54.667 -23 110.667 -23 168c0 87.333 17.333 177.666 52 270.999c90 149.333 158.833 226.166 206.5 230.499s73.167 6.5 76.5 6.5c119.333 0 211.333 -46 276 -138
c12 -15.333 18 -31.333 18 -48c0 -23.333 -11 -48 -33 -74c-39.333 -46 -80 -55 -122 -27c-45.333 58.667 -97 76.334 -155 53.001c-53.333 -1.33301 -92.333 -39.666 -117 -114.999s-28.834 -146.166 -12.501 -212.499s57.5 -96.833 123.5 -91.5
c39.333 -11.333 84.666 5 135.999 49c30 65.333 66.667 83.333 110 54s57.666 -69.666 42.999 -120.999c-75.333 -121.333 -172.666 -186 -291.999 -194zM335.002 -274.002c-56 0 -116.669 46.001 -182.002 138.001c18.667 71.333 37.334 97.666 56.001 78.999
c83.333 -96 133.166 -127.5 149.499 -94.5s-0.166992 71.333 -49.5 115s-73.166 88 -71.499 133s36.5 72.167 104.5 81.5l19 -61c0 -24 -8.16699 -36.167 -24.5 -36.5s-15.833 -6.5 1.5 -18.5c44 -32 80 -72.667 108 -122c12 -34 14.333 -64.667 7 -92
c0.666992 -48 -24.666 -85 -75.999 -111c-13.333 -7.33301 -27.333 -11 -42 -11z" />
    <glyph glyph-name="egrave" unicode="&#xe8;" horiz-adv-x="698" 
d="M514 679c0.666992 118.667 -50.333 164 -153 136c-60.667 -28 -104.667 -80.667 -132 -158c-10 -27.333 -17 -55 -21 -83c89.333 0.666992 191.333 35.667 306 105zM207 409c12.667 -89.333 77.6709 -105.666 195.004 -48.999c70.667 46 120.5 44.333 149.5 -5
s21.5 -87.333 -22.5 -114c-54.667 -50 -125.334 -80.667 -212.001 -92c-12 -1.33301 -23.333 -2.33301 -34 -3c-134 -10 -216 47.333 -246 172c-13.333 53.333 -19 108.666 -17 165.999c3.33301 87.333 23.333 185.666 60 294.999c63.333 112 127.666 179.5 192.999 202.5
s99.666 34.5 102.999 34.5c119.333 8.66699 209.666 -30.666 270.999 -117.999c11.333 -14.667 20.333 -55.667 27 -123s-7.83301 -126.5 -43.5 -177.5s-97.5 -95.167 -185.5 -132.5s-167.333 -56 -238 -56zM202.004 1466c22.667 8.66699 44.667 12.999 66 12.999
c34 0 66 -11.333 96 -34c66.667 -142.667 100 -244.667 100 -306c0 -27.333 -6.66699 -46.666 -20 -57.999l-31 -26l-41 16l-190 260c-7.33301 15.333 -11 31.333 -11 48c0 27.333 10.333 56.333 31 87z" />
    <glyph glyph-name="eacute" unicode="&#xe9;" horiz-adv-x="698" 
d="M514 679c0.666992 118.667 -50.333 164 -153 136c-60.667 -28 -104.667 -80.667 -132 -158c-10 -27.333 -17 -55 -21 -83c89.333 0.666992 191.333 35.667 306 105zM207 409c12.667 -89.333 77.6709 -105.666 195.004 -48.999c70.667 46 120.5 44.333 149.5 -5
s21.5 -87.333 -22.5 -114c-54.667 -50 -125.334 -80.667 -212.001 -92c-12 -1.33301 -23.333 -2.33301 -34 -3c-134 -10 -216 47.333 -246 172c-13.333 53.333 -19 108.666 -17 165.999c3.33301 87.333 23.333 185.666 60 294.999c63.333 112 127.666 179.5 192.999 202.5
s99.666 34.5 102.999 34.5c119.333 8.66699 209.666 -30.666 270.999 -117.999c11.333 -14.667 20.333 -55.667 27 -123s-7.83301 -126.5 -43.5 -177.5s-97.5 -95.167 -185.5 -132.5s-167.333 -56 -238 -56zM616.004 1379c0 -16.667 -3.66699 -32.666 -11 -47.999l-190 -260
l-41 -16l-31 26c-13.333 11.333 -20 30.666 -20 57.999c0 61.333 33.333 163.333 100 306c30 22.667 62 34 96 34c21.333 0 43.333 -4.33301 66 -13c20.667 -30.667 31 -59.667 31 -87z" />
    <glyph glyph-name="ecircumflex" unicode="&#xea;" horiz-adv-x="698" 
d="M514 679c0.666992 118.667 -50.333 164 -153 136c-60.667 -28 -104.667 -80.667 -132 -158c-10 -27.333 -17 -55 -21 -83c89.333 0.666992 191.333 35.667 306 105zM207 409c12.667 -89.333 77.6709 -105.666 195.004 -48.999c70.667 46 120.5 44.333 149.5 -5
s21.5 -87.333 -22.5 -114c-54.667 -50 -125.334 -80.667 -212.001 -92c-12 -1.33301 -23.333 -2.33301 -34 -3c-134 -10 -216 47.333 -246 172c-13.333 53.333 -19 108.666 -17 165.999c3.33301 87.333 23.333 185.666 60 294.999c63.333 112 127.666 179.5 192.999 202.5
s99.666 34.5 102.999 34.5c119.333 8.66699 209.666 -30.666 270.999 -117.999c11.333 -14.667 20.333 -55.667 27 -123s-7.83301 -126.5 -43.5 -177.5s-97.5 -95.167 -185.5 -132.5s-167.333 -56 -238 -56zM406.004 1273
c-80.667 -184.667 -144.669 -270.665 -192.002 -257.998l-39 10l-24 64c72 200 130.333 338.667 175 416c-9.33301 43.333 -7.66602 68.666 5.00098 75.999l35 20l94 -43l56 -97c102.667 -244 129.334 -380 80.001 -408l-34 -20l-63 29
c-36.667 79.333 -67.667 149.666 -93 210.999z" />
    <glyph glyph-name="edieresis" unicode="&#xeb;" horiz-adv-x="698" 
d="M514 679c0.666992 118.667 -50.333 164 -153 136c-60.667 -28 -104.667 -80.667 -132 -158c-10 -27.333 -17 -55 -21 -83c89.333 0.666992 191.333 35.667 306 105zM207 409c12.667 -89.333 77.6709 -105.666 195.004 -48.999c70.667 46 120.5 44.333 149.5 -5
s21.5 -87.333 -22.5 -114c-54.667 -50 -125.334 -80.667 -212.001 -92c-12 -1.33301 -23.333 -2.33301 -34 -3c-134 -10 -216 47.333 -246 172c-13.333 53.333 -19 108.666 -17 165.999c3.33301 87.333 23.333 185.666 60 294.999c63.333 112 127.666 179.5 192.999 202.5
s99.666 34.5 102.999 34.5c119.333 8.66699 209.666 -30.666 270.999 -117.999c11.333 -14.667 20.333 -55.667 27 -123s-7.83301 -126.5 -43.5 -177.5s-97.5 -95.167 -185.5 -132.5s-167.333 -56 -238 -56zM239.004 1439c12.667 4.66699 25 6.99902 37 6.99902
c40 0 70.333 -28 91 -84c-18.667 -76 -48.667 -114 -90 -114c-42 0 -76.333 18.667 -103 56c-3.33301 14.667 -5 28.334 -5 41.001c0 46 23.333 77.333 70 94zM501.004 1439c12.667 4.66699 25 6.99902 37 6.99902c40 0 70.333 -28 91 -84
c-18.667 -76 -48.667 -114 -90 -114c-42 0 -76.333 18.667 -103 56c-3.33301 14.667 -5 28.334 -5 41.001c0 46 23.333 77.333 70 94z" />
    <glyph glyph-name="igrave" unicode="&#xec;" horiz-adv-x="355" 
d="M262 296c-6 -89.333 -35.999 -141.667 -89.999 -157c-10.667 -2 -20.334 -3 -29.001 -3c-58 0 -86.333 44 -85 132v3l79 596c2 96.667 49 145 141 145c6.66699 1.33301 13 2 19 2c33.333 0 47.333 -19.333 42 -58l-23 -160zM68.001 1466
c22.667 8.66699 44.667 12.999 66 12.999c34 0 66 -11.333 96 -34c66.667 -142.667 100 -244.667 100 -306c0 -27.333 -6.66699 -46.666 -20 -57.999l-31 -26l-41 16l-190 260c-7.33301 15.333 -11 31.333 -11 48c0 27.333 10.333 56.333 31 87z" />
    <glyph glyph-name="iacute" unicode="&#xed;" horiz-adv-x="355" 
d="M262 296c-6 -89.333 -35.999 -141.667 -89.999 -157c-10.667 -2 -20.334 -3 -29.001 -3c-58 0 -86.333 44 -85 132v3l79 596c2 96.667 49 145 141 145c6.66699 1.33301 13 2 19 2c33.333 0 47.333 -19.333 42 -58l-23 -160zM488.001 1379
c0 -16.667 -3.66699 -32.666 -11 -47.999l-190 -260l-41 -16l-31 26c-13.333 11.333 -20 30.666 -20 57.999c0 61.333 33.333 163.333 100 306c30 22.667 62 34 96 34c21.333 0 43.333 -4.33301 66 -13c20.667 -30.667 31 -59.667 31 -87z" />
    <glyph glyph-name="icircumflex" unicode="&#xee;" horiz-adv-x="355" 
d="M262 296c-6 -89.333 -35.999 -141.667 -89.999 -157c-10.667 -2 -20.334 -3 -29.001 -3c-58 0 -86.333 44 -85 132v3l79 596c2 96.667 49 145 141 145c6.66699 1.33301 13 2 19 2c33.333 0 47.333 -19.333 42 -58l-23 -160zM259.197 1273
c-64.5322 -184.667 -115.731 -270.665 -153.598 -257.998l-31.1992 10l-19.2002 64c57.5986 200 104.265 338.667 139.998 416c-7.4668 43.333 -6.13379 68.666 4 75.999l27.999 20l75.1992 -43l44.7998 -97c82.1318 -244 103.465 -380 63.999 -408l-27.1992 -20
l-50.3994 29c-29.333 79.333 -54.1328 149.666 -74.3994 210.999z" />
    <glyph glyph-name="idieresis" unicode="&#xef;" horiz-adv-x="355" 
d="M262 296c-6 -89.333 -35.999 -141.667 -89.999 -157c-10.667 -2 -20.334 -3 -29.001 -3c-58 0 -86.333 44 -85 132v3l79 596c2 96.667 49 145 141 145c6.66699 1.33301 13 2 19 2c33.333 0 47.333 -19.333 42 -58l-23 -160zM118.001 1439
c12.667 4.66699 25 6.99902 37 6.99902c40 0 70.333 -28 91 -84c-18.667 -76 -48.667 -114 -90 -114c-42 0 -76.333 18.667 -103 56c-3.33301 14.667 -5 28.334 -5 41.001c0 46 23.333 77.333 70 94zM380.001 1439c12.667 4.66699 25 6.99902 37 6.99902
c40 0 70.333 -28 91 -84c-18.667 -76 -48.667 -114 -90 -114c-42 0 -76.333 18.667 -103 56c-3.33301 14.667 -5 28.334 -5 41.001c0 46 23.333 77.333 70 94z" />
    <glyph glyph-name="eth" unicode="&#xf0;" 
 />
    <glyph glyph-name="ntilde" unicode="&#xf1;" horiz-adv-x="801" 
d="M666 999c103.333 -12.667 151.999 -101.667 145.999 -267c-3.33301 -93.333 -24.333 -211.333 -63 -354c11.333 -40 16.333 -75.667 15 -107c-2 -58 -24.667 -102.333 -68 -133c-23.333 -12 -43.666 -18 -60.999 -18c-55.333 0 -81.333 61 -78 183
c71.333 314.667 80.833 477 28.5 487s-159.166 -163 -320.499 -519c-38.667 -72.667 -79.667 -116.667 -123 -132c-10.667 -2 -20.334 -3 -29.001 -3c-58 0 -85.333 44 -82 132v3l85 601c4 96.667 52 145 144 145c6.66699 1.33301 13 2 19 2c33.333 0 47 -19.333 41 -58
l-60 -298c100 225.333 223.333 338 370 338c12 0 24 -0.666992 36 -2zM423.999 1478h12.002c67.333 0 111.666 -36 132.999 -108c42.667 -72 75.667 -61.333 99 32c-6 44.667 5.33301 71 34 79h39c19.333 0 32 -11.333 38 -34l-7 -49c-5.33301 -86 -42 -144.333 -110 -175
c-18.667 -8.66699 -40.667 -10.667 -66 -6c-42.667 0 -76.334 29.667 -101.001 89c-48 81.333 -77.667 77.333 -89 -12l-20 -72c-15.333 -6.66699 -29.333 -10 -42 -10c-23.333 0 -42.333 11.667 -57 35c33.333 148.667 79 225.667 137 231z" />
    <glyph glyph-name="ograve" unicode="&#xf2;" horiz-adv-x="664" 
d="M607 858c52.667 -92 57.666 -234.167 14.999 -426.5s-141 -294 -295 -305s-249.833 52.167 -287.5 189.5s-28 283.5 29 438.5s147.833 234 272.5 237s213.334 -41.5 266.001 -133.5zM218.999 643c-24.667 -75.333 -28.832 -146.169 -12.499 -212.502
s57.5 -96.833 123.5 -91.5s108.167 54.5 126.5 147.5s16.166 161.833 -6.50098 206.5s-60.667 66.334 -114 65.001s-92.333 -39.666 -117 -114.999zM197.001 1466c22.667 8.66699 44.667 12.999 66 12.999c34 0 66 -11.333 96 -34c66.667 -142.667 100 -244.667 100 -306
c0 -27.333 -6.66699 -46.666 -20 -57.999l-31 -26l-41 16l-190 260c-7.33301 15.333 -11 31.333 -11 48c0 27.333 10.333 56.333 31 87z" />
    <glyph glyph-name="oacute" unicode="&#xf3;" horiz-adv-x="664" 
d="M607 858c52.667 -92 57.666 -234.167 14.999 -426.5s-141 -294 -295 -305s-249.833 52.167 -287.5 189.5s-28 283.5 29 438.5s147.833 234 272.5 237s213.334 -41.5 266.001 -133.5zM218.999 643c-24.667 -75.333 -28.832 -146.169 -12.499 -212.502
s57.5 -96.833 123.5 -91.5s108.167 54.5 126.5 147.5s16.166 161.833 -6.50098 206.5s-60.667 66.334 -114 65.001s-92.333 -39.666 -117 -114.999zM649.001 1379c0 -16.667 -3.66699 -32.666 -11 -47.999l-190 -260l-41 -16l-31 26c-13.333 11.333 -20 30.666 -20 57.999
c0 61.333 33.333 163.333 100 306c30 22.667 62 34 96 34c21.333 0 43.333 -4.33301 66 -13c20.667 -30.667 31 -59.667 31 -87z" />
    <glyph glyph-name="ocircumflex" unicode="&#xf4;" horiz-adv-x="664" 
d="M607 858c52.667 -92 57.666 -234.167 14.999 -426.5s-141 -294 -295 -305s-249.833 52.167 -287.5 189.5s-28 283.5 29 438.5s147.833 234 272.5 237s213.334 -41.5 266.001 -133.5zM218.999 643c-24.667 -75.333 -28.832 -146.169 -12.499 -212.502
s57.5 -96.833 123.5 -91.5s108.167 54.5 126.5 147.5s16.166 161.833 -6.50098 206.5s-60.667 66.334 -114 65.001s-92.333 -39.666 -117 -114.999zM393.001 1273c-80.667 -184.667 -144.669 -270.665 -192.002 -257.998l-39 10l-24 64c72 200 130.333 338.667 175 416
c-9.33301 43.333 -7.66602 68.666 5.00098 75.999l35 20l94 -43l56 -97c102.667 -244 129.334 -380 80.001 -408l-34 -20l-63 29c-36.667 79.333 -67.667 149.666 -93 210.999z" />
    <glyph glyph-name="otilde" unicode="&#xf5;" horiz-adv-x="664" 
d="M607 858c52.667 -92 57.666 -234.167 14.999 -426.5s-141 -294 -295 -305s-249.833 52.167 -287.5 189.5s-28 283.5 29 438.5s147.833 234 272.5 237s213.334 -41.5 266.001 -133.5zM218.999 643c-24.667 -75.333 -28.832 -146.169 -12.499 -212.502
s57.5 -96.833 123.5 -91.5s108.167 54.5 126.5 147.5s16.166 161.833 -6.50098 206.5s-60.667 66.334 -114 65.001s-92.333 -39.666 -117 -114.999zM284.001 1478h12.002c67.333 0 111.666 -36 132.999 -108c42.667 -72 75.667 -61.333 99 32c-6 44.667 5.33301 71 34 79h39
c19.333 0 32 -11.333 38 -34l-7 -49c-5.33301 -86 -42 -144.333 -110 -175c-18.667 -8.66699 -40.667 -10.667 -66 -6c-42.667 0 -76.334 29.667 -101.001 89c-48 81.333 -77.667 77.333 -89 -12l-20 -72c-15.333 -6.66699 -29.333 -10 -42 -10
c-23.333 0 -42.333 11.667 -57 35c33.333 148.667 79 225.667 137 231z" />
    <glyph glyph-name="odieresis" unicode="&#xf6;" horiz-adv-x="664" 
d="M607 858c52.667 -92 57.666 -234.167 14.999 -426.5s-141 -294 -295 -305s-249.833 52.167 -287.5 189.5s-28 283.5 29 438.5s147.833 234 272.5 237s213.334 -41.5 266.001 -133.5zM218.999 643c-24.667 -75.333 -28.832 -146.169 -12.499 -212.502
s57.5 -96.833 123.5 -91.5s108.167 54.5 126.5 147.5s16.166 161.833 -6.50098 206.5s-60.667 66.334 -114 65.001s-92.333 -39.666 -117 -114.999zM225.001 1439c12.667 4.66699 25 6.99902 37 6.99902c40 0 70.333 -28 91 -84c-18.667 -76 -48.667 -114 -90 -114
c-42 0 -76.333 18.667 -103 56c-3.33301 14.667 -5 28.334 -5 41.001c0 46 23.333 77.333 70 94zM487.001 1439c12.667 4.66699 25 6.99902 37 6.99902c40 0 70.333 -28 91 -84c-18.667 -76 -48.667 -114 -90 -114c-42 0 -76.333 18.667 -103 56
c-3.33301 14.667 -5 28.334 -5 41.001c0 46 23.333 77.333 70 94z" />
    <glyph glyph-name="divide" unicode="&#xf7;" horiz-adv-x="1124" 
 />
    <glyph glyph-name="oslash" unicode="&#xf8;" horiz-adv-x="1251" 
 />
    <glyph glyph-name="ugrave" unicode="&#xf9;" horiz-adv-x="778" 
d="M521 227c-48.667 -69.333 -110.669 -104.002 -186.002 -104.002c-34.667 0 -71.667 7.33301 -111 22c-104.667 36.667 -157 127.334 -157 272.001c0 32 2.66699 67 8 105c3.33301 25.333 8.33301 50.333 15 75c40.667 166 76.334 274.333 107.001 325
c22.667 37.333 52.667 56 90 56c12.667 0 26 -2 40 -6c56.667 -17.333 71.334 -54.666 44.001 -111.999c-53.333 -112 -85.333 -210.833 -96 -296.5s-8 -150.5 8 -194.5c28 -78.667 115.667 -57.667 263 63l30 251l20 197c4.66699 40.667 49 66 133 76c4.66699 2 9 3 13 3
c22.667 0 34 -30 34 -90c0 -36.667 -4.33301 -85 -13 -145l-51 -533c-71.333 -50 -124 -75 -158 -75c-20 0 -33.333 9 -40 27zM324.998 1466c22.667 8.66699 44.667 12.999 66 12.999c34 0 66 -11.333 96 -34c66.667 -142.667 100 -244.667 100 -306
c0 -27.333 -6.66699 -46.666 -20 -57.999l-31 -26l-41 16l-190 260c-7.33301 15.333 -11 31.333 -11 48c0 27.333 10.333 56.333 31 87z" />
    <glyph glyph-name="uacute" unicode="&#xfa;" horiz-adv-x="778" 
d="M521 227c-48.667 -69.333 -110.669 -104.002 -186.002 -104.002c-34.667 0 -71.667 7.33301 -111 22c-104.667 36.667 -157 127.334 -157 272.001c0 32 2.66699 67 8 105c3.33301 25.333 8.33301 50.333 15 75c40.667 166 76.334 274.333 107.001 325
c22.667 37.333 52.667 56 90 56c12.667 0 26 -2 40 -6c56.667 -17.333 71.334 -54.666 44.001 -111.999c-53.333 -112 -85.333 -210.833 -96 -296.5s-8 -150.5 8 -194.5c28 -78.667 115.667 -57.667 263 63l30 251l20 197c4.66699 40.667 49 66 133 76c4.66699 2 9 3 13 3
c22.667 0 34 -30 34 -90c0 -36.667 -4.33301 -85 -13 -145l-51 -533c-71.333 -50 -124 -75 -158 -75c-20 0 -33.333 9 -40 27zM742.998 1379c0 -16.667 -3.66699 -32.666 -11 -47.999l-190 -260l-41 -16l-31 26c-13.333 11.333 -20 30.666 -20 57.999
c0 61.333 33.333 163.333 100 306c30 22.667 62 34 96 34c21.333 0 43.333 -4.33301 66 -13c20.667 -30.667 31 -59.667 31 -87z" />
    <glyph glyph-name="ucircumflex" unicode="&#xfb;" horiz-adv-x="778" 
d="M521 227c-48.667 -69.333 -110.669 -104.002 -186.002 -104.002c-34.667 0 -71.667 7.33301 -111 22c-104.667 36.667 -157 127.334 -157 272.001c0 32 2.66699 67 8 105c3.33301 25.333 8.33301 50.333 15 75c40.667 166 76.334 274.333 107.001 325
c22.667 37.333 52.667 56 90 56c12.667 0 26 -2 40 -6c56.667 -17.333 71.334 -54.666 44.001 -111.999c-53.333 -112 -85.333 -210.833 -96 -296.5s-8 -150.5 8 -194.5c28 -78.667 115.667 -57.667 263 63l30 251l20 197c4.66699 40.667 49 66 133 76c4.66699 2 9 3 13 3
c22.667 0 34 -30 34 -90c0 -36.667 -4.33301 -85 -13 -145l-51 -533c-71.333 -50 -124 -75 -158 -75c-20 0 -33.333 9 -40 27zM538.998 1273c-80.667 -184.667 -144.669 -270.665 -192.002 -257.998l-39 10l-24 64c72 200 130.333 338.667 175 416
c-9.33301 43.333 -7.66602 68.666 5.00098 75.999l35 20l94 -43l56 -97c102.667 -244 129.334 -380 80.001 -408l-34 -20l-63 29c-36.667 79.333 -67.667 149.666 -93 210.999z" />
    <glyph glyph-name="udieresis" unicode="&#xfc;" horiz-adv-x="778" 
d="M521 227c-48.667 -69.333 -110.669 -104.002 -186.002 -104.002c-34.667 0 -71.667 7.33301 -111 22c-104.667 36.667 -157 127.334 -157 272.001c0 32 2.66699 67 8 105c3.33301 25.333 8.33301 50.333 15 75c40.667 166 76.334 274.333 107.001 325
c22.667 37.333 52.667 56 90 56c12.667 0 26 -2 40 -6c56.667 -17.333 71.334 -54.666 44.001 -111.999c-53.333 -112 -85.333 -210.833 -96 -296.5s-8 -150.5 8 -194.5c28 -78.667 115.667 -57.667 263 63l30 251l20 197c4.66699 40.667 49 66 133 76c4.66699 2 9 3 13 3
c22.667 0 34 -30 34 -90c0 -36.667 -4.33301 -85 -13 -145l-51 -533c-71.333 -50 -124 -75 -158 -75c-20 0 -33.333 9 -40 27zM369.998 1439c12.667 4.66699 25 6.99902 37 6.99902c40 0 70.333 -28 91 -84c-18.667 -76 -48.667 -114 -90 -114c-42 0 -76.333 18.667 -103 56
c-3.33301 14.667 -5 28.334 -5 41.001c0 46 23.333 77.333 70 94zM631.998 1439c12.667 4.66699 25 6.99902 37 6.99902c40 0 70.333 -28 91 -84c-18.667 -76 -48.667 -114 -90 -114c-42 0 -76.333 18.667 -103 56c-3.33301 14.667 -5 28.334 -5 41.001
c0 46 23.333 77.333 70 94z" />
    <glyph glyph-name="yacute" unicode="&#xfd;" horiz-adv-x="1024" 
 />
    <glyph glyph-name="thorn" unicode="&#xfe;" 
 />
    <glyph glyph-name="ydieresis" unicode="&#xff;" horiz-adv-x="1024" 
 />
    <glyph glyph-name="Amacron" unicode="&#x100;" horiz-adv-x="1366" 
 />
    <glyph glyph-name="amacron" unicode="&#x101;" 
 />
    <glyph glyph-name="Abreve" unicode="&#x102;" horiz-adv-x="1366" 
 />
    <glyph glyph-name="abreve" unicode="&#x103;" 
 />
    <glyph glyph-name="Aogonek" unicode="&#x104;" horiz-adv-x="1366" 
 />
    <glyph glyph-name="aogonek" unicode="&#x105;" 
 />
    <glyph glyph-name="Cacute" unicode="&#x106;" horiz-adv-x="1479" 
 />
    <glyph glyph-name="cacute" unicode="&#x107;" horiz-adv-x="1024" 
 />
    <glyph glyph-name="Ccircumflex" unicode="&#x108;" horiz-adv-x="1479" 
 />
    <glyph glyph-name="ccircumflex" unicode="&#x109;" horiz-adv-x="1024" 
 />
    <glyph glyph-name="Cdotaccent" unicode="&#x10a;" horiz-adv-x="1479" 
 />
    <glyph glyph-name="cdotaccent" unicode="&#x10b;" horiz-adv-x="1024" 
 />
    <glyph glyph-name="Ccaron" unicode="&#x10c;" horiz-adv-x="1479" 
 />
    <glyph glyph-name="ccaron" unicode="&#x10d;" horiz-adv-x="1024" 
 />
    <glyph glyph-name="Dcaron" unicode="&#x10e;" horiz-adv-x="1479" 
 />
    <glyph glyph-name="dcaron" unicode="&#x10f;" horiz-adv-x="1259" 
 />
    <glyph glyph-name="Dcroat" unicode="&#x110;" horiz-adv-x="1479" 
 />
    <glyph glyph-name="dcroat" unicode="&#x111;" 
 />
    <glyph glyph-name="Emacron" unicode="&#x112;" horiz-adv-x="1366" 
 />
    <glyph glyph-name="emacron" unicode="&#x113;" 
 />
    <glyph glyph-name="Ebreve" unicode="&#x114;" horiz-adv-x="1366" 
 />
    <glyph glyph-name="ebreve" unicode="&#x115;" 
 />
    <glyph glyph-name="Edotaccent" unicode="&#x116;" horiz-adv-x="1366" 
 />
    <glyph glyph-name="edotaccent" unicode="&#x117;" 
 />
    <glyph glyph-name="Eogonek" unicode="&#x118;" horiz-adv-x="1366" 
 />
    <glyph glyph-name="eogonek" unicode="&#x119;" 
 />
    <glyph glyph-name="Ecaron" unicode="&#x11a;" horiz-adv-x="1366" 
 />
    <glyph glyph-name="ecaron" unicode="&#x11b;" 
 />
    <glyph glyph-name="Gcircumflex" unicode="&#x11c;" horiz-adv-x="1593" 
 />
    <glyph glyph-name="gcircumflex" unicode="&#x11d;" 
 />
    <glyph glyph-name="Gbreve" unicode="&#x11e;" horiz-adv-x="1593" 
 />
    <glyph glyph-name="gbreve" unicode="&#x11f;" 
 />
    <glyph glyph-name="Gdotaccent" unicode="&#x120;" horiz-adv-x="1593" 
 />
    <glyph glyph-name="gdotaccent" unicode="&#x121;" 
 />
    <glyph glyph-name="Gcommaaccent" unicode="&#x122;" horiz-adv-x="1593" 
 />
    <glyph glyph-name="gcommaaccent" unicode="&#x123;" 
 />
    <glyph glyph-name="Hcircumflex" unicode="&#x124;" horiz-adv-x="1479" 
 />
    <glyph glyph-name="hcircumflex" unicode="&#x125;" 
 />
    <glyph glyph-name="Hbar" unicode="&#x126;" horiz-adv-x="1479" 
 />
    <glyph glyph-name="hbar" unicode="&#x127;" 
 />
    <glyph glyph-name="Itilde" unicode="&#x128;" horiz-adv-x="569" 
 />
    <glyph glyph-name="itilde" unicode="&#x129;" horiz-adv-x="569" 
 />
    <glyph glyph-name="Imacron" unicode="&#x12a;" horiz-adv-x="569" 
 />
    <glyph glyph-name="imacron" unicode="&#x12b;" horiz-adv-x="569" 
 />
    <glyph glyph-name="Ibreve" unicode="&#x12c;" horiz-adv-x="569" 
 />
    <glyph glyph-name="ibreve" unicode="&#x12d;" horiz-adv-x="569" 
 />
    <glyph glyph-name="Iogonek" unicode="&#x12e;" horiz-adv-x="569" 
 />
    <glyph glyph-name="iogonek" unicode="&#x12f;" horiz-adv-x="455" 
 />
    <glyph glyph-name="Idotaccent" unicode="&#x130;" horiz-adv-x="569" 
 />
    <glyph glyph-name="dotlessi" unicode="&#x131;" horiz-adv-x="355" 
d="M262 296c-6 -89.333 -35.999 -141.667 -89.999 -157c-10.667 -2 -20.334 -3 -29.001 -3c-58 0 -86.333 44 -85 132v3l79 596c2 96.667 49 145 141 145c6.66699 1.33301 13 2 19 2c33.333 0 47.333 -19.333 42 -58l-23 -160z" />
    <glyph glyph-name="IJ" unicode="&#x132;" horiz-adv-x="1505" 
 />
    <glyph glyph-name="ij" unicode="&#x133;" horiz-adv-x="909" 
 />
    <glyph glyph-name="Jcircumflex" unicode="&#x134;" horiz-adv-x="1024" 
 />
    <glyph glyph-name="jcircumflex" unicode="&#x135;" horiz-adv-x="455" 
 />
    <glyph glyph-name="Kcommaaccent" unicode="&#x136;" horiz-adv-x="1366" 
 />
    <glyph glyph-name="kcommaaccent" unicode="&#x137;" horiz-adv-x="1024" 
 />
    <glyph glyph-name="kgreenlandic" unicode="&#x138;" horiz-adv-x="1024" 
 />
    <glyph glyph-name="Lacute" unicode="&#x139;" 
 />
    <glyph glyph-name="lacute" unicode="&#x13a;" horiz-adv-x="455" 
 />
    <glyph glyph-name="Lcommaaccent" unicode="&#x13b;" 
 />
    <glyph glyph-name="lcommaaccent" unicode="&#x13c;" horiz-adv-x="455" 
 />
    <glyph glyph-name="Lcaron" unicode="&#x13d;" 
 />
    <glyph glyph-name="lcaron" unicode="&#x13e;" horiz-adv-x="597" 
 />
    <glyph glyph-name="Ldot" unicode="&#x13f;" 
 />
    <glyph glyph-name="ldot" unicode="&#x140;" horiz-adv-x="684" 
 />
    <glyph glyph-name="Lslash" unicode="&#x141;" 
 />
    <glyph glyph-name="lslash" unicode="&#x142;" horiz-adv-x="455" 
 />
    <glyph glyph-name="Nacute" unicode="&#x143;" horiz-adv-x="1479" 
 />
    <glyph glyph-name="nacute" unicode="&#x144;" 
 />
    <glyph glyph-name="Ncommaaccent" unicode="&#x145;" horiz-adv-x="1479" 
 />
    <glyph glyph-name="ncommaaccent" unicode="&#x146;" 
 />
    <glyph glyph-name="Ncaron" unicode="&#x147;" horiz-adv-x="1479" 
 />
    <glyph glyph-name="ncaron" unicode="&#x148;" 
 />
    <glyph glyph-name="napostrophe" unicode="&#x149;" horiz-adv-x="1237" 
 />
    <glyph glyph-name="Eng" unicode="&#x14a;" horiz-adv-x="1481" 
 />
    <glyph glyph-name="eng" unicode="&#x14b;" 
 />
    <glyph glyph-name="Omacron" unicode="&#x14c;" horiz-adv-x="1593" 
 />
    <glyph glyph-name="omacron" unicode="&#x14d;" 
 />
    <glyph glyph-name="Obreve" unicode="&#x14e;" horiz-adv-x="1593" 
 />
    <glyph glyph-name="obreve" unicode="&#x14f;" 
 />
    <glyph glyph-name="Ohungarumlaut" unicode="&#x150;" horiz-adv-x="1593" 
 />
    <glyph glyph-name="ohungarumlaut" unicode="&#x151;" 
 />
    <glyph glyph-name="OE" unicode="&#x152;" horiz-adv-x="2048" 
 />
    <glyph glyph-name="oe" unicode="&#x153;" horiz-adv-x="1933" 
 />
    <glyph glyph-name="Racute" unicode="&#x154;" horiz-adv-x="1479" 
 />
    <glyph glyph-name="racute" unicode="&#x155;" horiz-adv-x="682" 
 />
    <glyph glyph-name="Rcommaaccent" unicode="&#x156;" horiz-adv-x="1479" 
 />
    <glyph glyph-name="rcommaaccent" unicode="&#x157;" horiz-adv-x="682" 
 />
    <glyph glyph-name="Rcaron" unicode="&#x158;" horiz-adv-x="1479" 
 />
    <glyph glyph-name="rcaron" unicode="&#x159;" horiz-adv-x="682" 
 />
    <glyph glyph-name="Sacute" unicode="&#x15a;" horiz-adv-x="1366" 
 />
    <glyph glyph-name="sacute" unicode="&#x15b;" horiz-adv-x="1024" 
 />
    <glyph glyph-name="Scircumflex" unicode="&#x15c;" horiz-adv-x="1366" 
 />
    <glyph glyph-name="scircumflex" unicode="&#x15d;" horiz-adv-x="1024" 
 />
    <glyph glyph-name="Scedilla" unicode="&#x15e;" horiz-adv-x="1366" 
 />
    <glyph glyph-name="scedilla" unicode="&#x15f;" horiz-adv-x="1024" 
 />
    <glyph glyph-name="Scaron" unicode="&#x160;" horiz-adv-x="1366" 
 />
    <glyph glyph-name="scaron" unicode="&#x161;" horiz-adv-x="1024" 
 />
    <glyph glyph-name="Tcommaaccent" unicode="&#x162;" horiz-adv-x="1251" 
 />
    <glyph glyph-name="tcommaaccent" unicode="&#x163;" horiz-adv-x="569" 
 />
    <glyph glyph-name="Tcaron" unicode="&#x164;" horiz-adv-x="1251" 
 />
    <glyph glyph-name="tcaron" unicode="&#x165;" horiz-adv-x="768" 
 />
    <glyph glyph-name="Tbar" unicode="&#x166;" horiz-adv-x="1251" 
 />
    <glyph glyph-name="tbar" unicode="&#x167;" horiz-adv-x="569" 
 />
    <glyph glyph-name="Utilde" unicode="&#x168;" horiz-adv-x="1479" 
 />
    <glyph glyph-name="utilde" unicode="&#x169;" 
 />
    <glyph glyph-name="Umacron" unicode="&#x16a;" horiz-adv-x="1479" 
 />
    <glyph glyph-name="umacron" unicode="&#x16b;" 
 />
    <glyph glyph-name="Ubreve" unicode="&#x16c;" horiz-adv-x="1479" 
 />
    <glyph glyph-name="ubreve" unicode="&#x16d;" 
 />
    <glyph glyph-name="Uring" unicode="&#x16e;" horiz-adv-x="1479" 
 />
    <glyph glyph-name="uring" unicode="&#x16f;" 
 />
    <glyph glyph-name="Uhungarumlaut" unicode="&#x170;" horiz-adv-x="1479" 
 />
    <glyph glyph-name="uhungarumlaut" unicode="&#x171;" 
 />
    <glyph glyph-name="Uogonek" unicode="&#x172;" horiz-adv-x="1479" 
 />
    <glyph glyph-name="uogonek" unicode="&#x173;" 
 />
    <glyph glyph-name="Wcircumflex" unicode="&#x174;" horiz-adv-x="1933" 
 />
    <glyph glyph-name="wcircumflex" unicode="&#x175;" horiz-adv-x="1479" 
 />
    <glyph glyph-name="Ycircumflex" unicode="&#x176;" horiz-adv-x="1366" 
 />
    <glyph glyph-name="ycircumflex" unicode="&#x177;" horiz-adv-x="1024" 
 />
    <glyph glyph-name="Ydieresis" unicode="&#x178;" horiz-adv-x="1366" 
 />
    <glyph glyph-name="Zacute" unicode="&#x179;" horiz-adv-x="1251" 
 />
    <glyph glyph-name="zacute" unicode="&#x17a;" horiz-adv-x="1024" 
 />
    <glyph glyph-name="Zdotaccent" unicode="&#x17b;" horiz-adv-x="1251" 
 />
    <glyph glyph-name="zdotaccent" unicode="&#x17c;" horiz-adv-x="1024" 
 />
    <glyph glyph-name="Zcaron" unicode="&#x17d;" horiz-adv-x="1251" 
 />
    <glyph glyph-name="zcaron" unicode="&#x17e;" horiz-adv-x="1024" 
 />
    <glyph glyph-name="longs" unicode="&#x17f;" horiz-adv-x="455" 
 />
    <glyph glyph-name="florin" unicode="&#x192;" 
 />
    <glyph glyph-name="Aringacute" unicode="&#x1fa;" horiz-adv-x="1366" 
 />
    <glyph glyph-name="aringacute" unicode="&#x1fb;" 
 />
    <glyph glyph-name="AEacute" unicode="&#x1fc;" horiz-adv-x="2048" 
 />
    <glyph glyph-name="aeacute" unicode="&#x1fd;" horiz-adv-x="1821" 
 />
    <glyph glyph-name="Oslashacute" unicode="&#x1fe;" horiz-adv-x="1593" 
 />
    <glyph glyph-name="oslashacute" unicode="&#x1ff;" horiz-adv-x="1251" 
 />
    <glyph glyph-name="circumflex" unicode="&#x2c6;" horiz-adv-x="596" 
d="M314 1273c-80.667 -184.667 -144.669 -270.665 -192.002 -257.998l-39 10l-24 64c72 200 130.333 338.667 175 416c-9.33301 43.333 -7.66602 68.666 5.00098 75.999l35 20l94 -43l56 -97c102.667 -244 129.334 -380 80.001 -408l-34 -20l-63 29
c-36.667 79.333 -67.667 149.666 -93 210.999z" />
    <glyph glyph-name="caron" unicode="&#x2c7;" horiz-adv-x="682" 
 />
    <glyph glyph-name="uni02C9" unicode="&#x2c9;" horiz-adv-x="682" 
 />
    <glyph glyph-name="breve" unicode="&#x2d8;" horiz-adv-x="682" 
 />
    <glyph glyph-name="dotaccent" unicode="&#x2d9;" horiz-adv-x="682" 
 />
    <glyph glyph-name="ring" unicode="&#x2da;" horiz-adv-x="682" 
 />
    <glyph glyph-name="ogonek" unicode="&#x2db;" horiz-adv-x="682" 
 />
    <glyph glyph-name="tilde" unicode="&#x2dc;" horiz-adv-x="622" 
d="M212 1478h12.002c67.333 0 111.666 -36 132.999 -108c42.667 -72 75.667 -61.333 99 32c-6 44.667 5.33301 71 34 79h39c19.333 0 32 -11.333 38 -34l-7 -49c-5.33301 -86 -42 -144.333 -110 -175c-18.667 -8.66699 -40.667 -10.667 -66 -6
c-42.667 0 -76.334 29.667 -101.001 89c-48 81.333 -77.667 77.333 -89 -12l-20 -72c-15.333 -6.66699 -29.333 -10 -42 -10c-23.333 0 -42.333 11.667 -57 35c33.333 148.667 79 225.667 137 231z" />
    <glyph glyph-name="hungarumlaut" unicode="&#x2dd;" horiz-adv-x="682" 
 />
    <glyph glyph-name="tonos" unicode="&#x384;" horiz-adv-x="682" 
 />
    <glyph glyph-name="dieresistonos" unicode="&#x385;" horiz-adv-x="682" 
 />
    <glyph glyph-name="Alphatonos" unicode="&#x386;" horiz-adv-x="1367" 
 />
    <glyph glyph-name="anoteleia" unicode="&#x387;" horiz-adv-x="569" 
 />
    <glyph glyph-name="Epsilontonos" unicode="&#x388;" horiz-adv-x="1606" 
 />
    <glyph glyph-name="Etatonos" unicode="&#x389;" horiz-adv-x="1716" 
 />
    <glyph glyph-name="Iotatonos" unicode="&#x38a;" horiz-adv-x="786" 
 />
    <glyph glyph-name="Omicrontonos" unicode="&#x38c;" horiz-adv-x="1586" 
 />
    <glyph glyph-name="Upsilontonos" unicode="&#x38e;" horiz-adv-x="1752" 
 />
    <glyph glyph-name="Omegatonos" unicode="&#x38f;" horiz-adv-x="1541" 
 />
    <glyph glyph-name="iotadieresistonos" unicode="&#x390;" horiz-adv-x="455" 
 />
    <glyph glyph-name="Alpha" unicode="&#x391;" horiz-adv-x="1366" 
 />
    <glyph glyph-name="Beta" unicode="&#x392;" horiz-adv-x="1366" 
 />
    <glyph glyph-name="Gamma" unicode="&#x393;" horiz-adv-x="1128" 
 />
    <glyph glyph-name="uni0394" unicode="&#x394;" horiz-adv-x="1368" 
 />
    <glyph glyph-name="Epsilon" unicode="&#x395;" horiz-adv-x="1366" 
 />
    <glyph glyph-name="Zeta" unicode="&#x396;" horiz-adv-x="1251" 
 />
    <glyph glyph-name="Eta" unicode="&#x397;" horiz-adv-x="1479" 
 />
    <glyph glyph-name="Theta" unicode="&#x398;" horiz-adv-x="1593" 
 />
    <glyph glyph-name="Iota" unicode="&#x399;" horiz-adv-x="569" 
 />
    <glyph glyph-name="Kappa" unicode="&#x39a;" horiz-adv-x="1366" 
 />
    <glyph glyph-name="Lambda" unicode="&#x39b;" horiz-adv-x="1368" 
 />
    <glyph glyph-name="Mu" unicode="&#x39c;" horiz-adv-x="1706" 
 />
    <glyph glyph-name="Nu" unicode="&#x39d;" horiz-adv-x="1479" 
 />
    <glyph glyph-name="Xi" unicode="&#x39e;" horiz-adv-x="1331" 
 />
    <glyph glyph-name="Omicron" unicode="&#x39f;" horiz-adv-x="1593" 
 />
    <glyph glyph-name="Pi" unicode="&#x3a0;" horiz-adv-x="1479" 
 />
    <glyph glyph-name="Rho" unicode="&#x3a1;" horiz-adv-x="1366" 
 />
    <glyph glyph-name="Sigma" unicode="&#x3a3;" horiz-adv-x="1266" 
 />
    <glyph glyph-name="Tau" unicode="&#x3a4;" horiz-adv-x="1251" 
 />
    <glyph glyph-name="Upsilon" unicode="&#x3a5;" horiz-adv-x="1366" 
 />
    <glyph glyph-name="Phi" unicode="&#x3a6;" horiz-adv-x="1634" 
 />
    <glyph glyph-name="Chi" unicode="&#x3a7;" horiz-adv-x="1366" 
 />
    <glyph glyph-name="Psi" unicode="&#x3a8;" horiz-adv-x="1711" 
 />
    <glyph glyph-name="uni03A9" unicode="&#x3a9;" horiz-adv-x="1531" 
 />
    <glyph glyph-name="Iotadieresis" unicode="&#x3aa;" horiz-adv-x="569" 
 />
    <glyph glyph-name="Upsilondieresis" unicode="&#x3ab;" horiz-adv-x="1366" 
 />
    <glyph glyph-name="alphatonos" unicode="&#x3ac;" horiz-adv-x="1184" 
 />
    <glyph glyph-name="epsilontonos" unicode="&#x3ad;" horiz-adv-x="913" 
 />
    <glyph glyph-name="etatonos" unicode="&#x3ae;" 
 />
    <glyph glyph-name="iotatonos" unicode="&#x3af;" horiz-adv-x="455" 
 />
    <glyph glyph-name="upsilondieresistonos" unicode="&#x3b0;" horiz-adv-x="1120" 
 />
    <glyph glyph-name="alpha" unicode="&#x3b1;" horiz-adv-x="1184" 
 />
    <glyph glyph-name="beta" unicode="&#x3b2;" horiz-adv-x="1178" 
 />
    <glyph glyph-name="gamma" unicode="&#x3b3;" horiz-adv-x="1024" 
 />
    <glyph glyph-name="delta" unicode="&#x3b4;" horiz-adv-x="1140" 
 />
    <glyph glyph-name="epsilon" unicode="&#x3b5;" horiz-adv-x="913" 
 />
    <glyph glyph-name="zeta" unicode="&#x3b6;" horiz-adv-x="903" 
 />
    <glyph glyph-name="eta" unicode="&#x3b7;" 
 />
    <glyph glyph-name="theta" unicode="&#x3b8;" 
 />
    <glyph glyph-name="iota" unicode="&#x3b9;" horiz-adv-x="455" 
 />
    <glyph glyph-name="kappa" unicode="&#x3ba;" horiz-adv-x="1024" 
 />
    <glyph glyph-name="lambda" unicode="&#x3bb;" horiz-adv-x="1024" 
 />
    <glyph glyph-name="uni03BC" unicode="&#x3bc;" horiz-adv-x="1180" 
 />
    <glyph glyph-name="nu" unicode="&#x3bd;" horiz-adv-x="1024" 
 />
    <glyph glyph-name="xi" unicode="&#x3be;" horiz-adv-x="917" 
 />
    <glyph glyph-name="omicron" unicode="&#x3bf;" 
 />
    <glyph glyph-name="pi" unicode="&#x3c0;" horiz-adv-x="1413" 
 />
    <glyph glyph-name="rho" unicode="&#x3c1;" horiz-adv-x="1165" 
 />
    <glyph glyph-name="sigma1" unicode="&#x3c2;" horiz-adv-x="987" 
 />
    <glyph glyph-name="sigma" unicode="&#x3c3;" horiz-adv-x="1264" 
 />
    <glyph glyph-name="tau" unicode="&#x3c4;" horiz-adv-x="809" 
 />
    <glyph glyph-name="upsilon" unicode="&#x3c5;" horiz-adv-x="1120" 
 />
    <glyph glyph-name="phi" unicode="&#x3c6;" horiz-adv-x="1328" 
 />
    <glyph glyph-name="chi" unicode="&#x3c7;" horiz-adv-x="1075" 
 />
    <glyph glyph-name="psi" unicode="&#x3c8;" horiz-adv-x="1460" 
 />
    <glyph glyph-name="omega" unicode="&#x3c9;" horiz-adv-x="1599" 
 />
    <glyph glyph-name="iotadieresis" unicode="&#x3ca;" horiz-adv-x="455" 
 />
    <glyph glyph-name="upsilondieresis" unicode="&#x3cb;" horiz-adv-x="1120" 
 />
    <glyph glyph-name="omicrontonos" unicode="&#x3cc;" 
 />
    <glyph glyph-name="upsilontonos" unicode="&#x3cd;" horiz-adv-x="1120" 
 />
    <glyph glyph-name="omegatonos" unicode="&#x3ce;" horiz-adv-x="1599" 
 />
    <glyph glyph-name="afii10023" unicode="&#x401;" horiz-adv-x="1367" 
 />
    <glyph glyph-name="afii10051" unicode="&#x402;" horiz-adv-x="1771" 
 />
    <glyph glyph-name="afii10052" unicode="&#x403;" horiz-adv-x="1109" 
 />
    <glyph glyph-name="afii10053" unicode="&#x404;" horiz-adv-x="1472" 
 />
    <glyph glyph-name="afii10054" unicode="&#x405;" horiz-adv-x="1366" 
 />
    <glyph glyph-name="afii10055" unicode="&#x406;" horiz-adv-x="569" 
 />
    <glyph glyph-name="afii10056" unicode="&#x407;" horiz-adv-x="569" 
 />
    <glyph glyph-name="afii10057" unicode="&#x408;" horiz-adv-x="1024" 
 />
    <glyph glyph-name="afii10058" unicode="&#x409;" horiz-adv-x="2165" 
 />
    <glyph glyph-name="afii10059" unicode="&#x40a;" horiz-adv-x="2069" 
 />
    <glyph glyph-name="afii10060" unicode="&#x40b;" horiz-adv-x="1749" 
 />
    <glyph glyph-name="afii10061" unicode="&#x40c;" horiz-adv-x="1193" 
 />
    <glyph glyph-name="afii10062" unicode="&#x40e;" horiz-adv-x="1301" 
 />
    <glyph glyph-name="afii10145" unicode="&#x40f;" horiz-adv-x="1472" 
 />
    <glyph glyph-name="afii10017" unicode="&#x410;" horiz-adv-x="1366" 
 />
    <glyph glyph-name="afii10018" unicode="&#x411;" horiz-adv-x="1344" 
 />
    <glyph glyph-name="afii10019" unicode="&#x412;" horiz-adv-x="1366" 
 />
    <glyph glyph-name="afii10020" unicode="&#x413;" horiz-adv-x="1109" 
 />
    <glyph glyph-name="afii10021" unicode="&#x414;" horiz-adv-x="1387" 
 />
    <glyph glyph-name="afii10022" unicode="&#x415;" horiz-adv-x="1366" 
 />
    <glyph glyph-name="afii10024" unicode="&#x416;" horiz-adv-x="1891" 
 />
    <glyph glyph-name="afii10025" unicode="&#x417;" horiz-adv-x="1237" 
 />
    <glyph glyph-name="afii10026" unicode="&#x418;" horiz-adv-x="1472" 
 />
    <glyph glyph-name="afii10027" unicode="&#x419;" horiz-adv-x="1472" 
 />
    <glyph glyph-name="afii10028" unicode="&#x41a;" horiz-adv-x="1193" 
 />
    <glyph glyph-name="afii10029" unicode="&#x41b;" horiz-adv-x="1344" 
 />
    <glyph glyph-name="afii10030" unicode="&#x41c;" horiz-adv-x="1706" 
 />
    <glyph glyph-name="afii10031" unicode="&#x41d;" horiz-adv-x="1479" 
 />
    <glyph glyph-name="afii10032" unicode="&#x41e;" horiz-adv-x="1593" 
 />
    <glyph glyph-name="afii10033" unicode="&#x41f;" horiz-adv-x="1472" 
 />
    <glyph glyph-name="afii10034" unicode="&#x420;" horiz-adv-x="1366" 
 />
    <glyph glyph-name="afii10035" unicode="&#x421;" horiz-adv-x="1479" 
 />
    <glyph glyph-name="afii10036" unicode="&#x422;" horiz-adv-x="1251" 
 />
    <glyph glyph-name="afii10037" unicode="&#x423;" horiz-adv-x="1301" 
 />
    <glyph glyph-name="afii10038" unicode="&#x424;" horiz-adv-x="1557" 
 />
    <glyph glyph-name="afii10039" unicode="&#x425;" horiz-adv-x="1366" 
 />
    <glyph glyph-name="afii10040" unicode="&#x426;" horiz-adv-x="1515" 
 />
    <glyph glyph-name="afii10041" unicode="&#x427;" horiz-adv-x="1365" 
 />
    <glyph glyph-name="afii10042" unicode="&#x428;" horiz-adv-x="1877" 
 />
    <glyph glyph-name="afii10043" unicode="&#x429;" horiz-adv-x="1920" 
 />
    <glyph glyph-name="afii10044" unicode="&#x42a;" horiz-adv-x="1621" 
 />
    <glyph glyph-name="afii10045" unicode="&#x42b;" horiz-adv-x="1813" 
 />
    <glyph glyph-name="afii10046" unicode="&#x42c;" horiz-adv-x="1344" 
 />
    <glyph glyph-name="afii10047" unicode="&#x42d;" horiz-adv-x="1472" 
 />
    <glyph glyph-name="afii10048" unicode="&#x42e;" horiz-adv-x="2069" 
 />
    <glyph glyph-name="afii10049" unicode="&#x42f;" horiz-adv-x="1479" 
 />
    <glyph glyph-name="afii10065" unicode="&#x430;" 
 />
    <glyph glyph-name="afii10066" unicode="&#x431;" horiz-adv-x="1173" 
 />
    <glyph glyph-name="afii10067" unicode="&#x432;" horiz-adv-x="1088" 
 />
    <glyph glyph-name="afii10068" unicode="&#x433;" horiz-adv-x="747" 
 />
    <glyph glyph-name="afii10069" unicode="&#x434;" horiz-adv-x="1195" 
 />
    <glyph glyph-name="afii10070" unicode="&#x435;" 
 />
    <glyph glyph-name="afii10072" unicode="&#x436;" horiz-adv-x="1370" 
 />
    <glyph glyph-name="afii10073" unicode="&#x437;" horiz-adv-x="939" 
 />
    <glyph glyph-name="afii10074" unicode="&#x438;" horiz-adv-x="1144" 
 />
    <glyph glyph-name="afii10075" unicode="&#x439;" horiz-adv-x="1144" 
 />
    <glyph glyph-name="afii10076" unicode="&#x43a;" horiz-adv-x="896" 
 />
    <glyph glyph-name="afii10077" unicode="&#x43b;" horiz-adv-x="1195" 
 />
    <glyph glyph-name="afii10078" unicode="&#x43c;" horiz-adv-x="1408" 
 />
    <glyph glyph-name="afii10079" unicode="&#x43d;" horiz-adv-x="1131" 
 />
    <glyph glyph-name="afii10080" unicode="&#x43e;" 
 />
    <glyph glyph-name="afii10081" unicode="&#x43f;" horiz-adv-x="1109" 
 />
    <glyph glyph-name="afii10082" unicode="&#x440;" 
 />
    <glyph glyph-name="afii10083" unicode="&#x441;" horiz-adv-x="1024" 
 />
    <glyph glyph-name="afii10084" unicode="&#x442;" horiz-adv-x="938" 
 />
    <glyph glyph-name="afii10085" unicode="&#x443;" horiz-adv-x="1024" 
 />
    <glyph glyph-name="afii10086" unicode="&#x444;" horiz-adv-x="1685" 
 />
    <glyph glyph-name="afii10087" unicode="&#x445;" horiz-adv-x="1024" 
 />
    <glyph glyph-name="afii10088" unicode="&#x446;" horiz-adv-x="1173" 
 />
    <glyph glyph-name="afii10089" unicode="&#x447;" horiz-adv-x="1067" 
 />
    <glyph glyph-name="afii10090" unicode="&#x448;" horiz-adv-x="1643" 
 />
    <glyph glyph-name="afii10091" unicode="&#x449;" horiz-adv-x="1685" 
 />
    <glyph glyph-name="afii10092" unicode="&#x44a;" horiz-adv-x="1280" 
 />
    <glyph glyph-name="afii10093" unicode="&#x44b;" horiz-adv-x="1472" 
 />
    <glyph glyph-name="afii10094" unicode="&#x44c;" horiz-adv-x="1067" 
 />
    <glyph glyph-name="afii10095" unicode="&#x44d;" horiz-adv-x="1045" 
 />
    <glyph glyph-name="afii10096" unicode="&#x44e;" horiz-adv-x="1536" 
 />
    <glyph glyph-name="afii10097" unicode="&#x44f;" horiz-adv-x="1109" 
 />
    <glyph glyph-name="afii10071" unicode="&#x451;" 
 />
    <glyph glyph-name="afii10099" unicode="&#x452;" 
 />
    <glyph glyph-name="afii10100" unicode="&#x453;" horiz-adv-x="747" 
 />
    <glyph glyph-name="afii10101" unicode="&#x454;" horiz-adv-x="1045" 
 />
    <glyph glyph-name="afii10102" unicode="&#x455;" horiz-adv-x="1024" 
 />
    <glyph glyph-name="afii10103" unicode="&#x456;" horiz-adv-x="455" 
 />
    <glyph glyph-name="afii10104" unicode="&#x457;" horiz-adv-x="569" 
 />
    <glyph glyph-name="afii10105" unicode="&#x458;" horiz-adv-x="455" 
 />
    <glyph glyph-name="afii10106" unicode="&#x459;" horiz-adv-x="1856" 
 />
    <glyph glyph-name="afii10107" unicode="&#x45a;" horiz-adv-x="1664" 
 />
    <glyph glyph-name="afii10108" unicode="&#x45b;" 
 />
    <glyph glyph-name="afii10109" unicode="&#x45c;" horiz-adv-x="896" 
 />
    <glyph glyph-name="afii10110" unicode="&#x45e;" horiz-adv-x="1024" 
 />
    <glyph glyph-name="afii10193" unicode="&#x45f;" horiz-adv-x="1131" 
 />
    <glyph glyph-name="afii10050" unicode="&#x490;" horiz-adv-x="1001" 
 />
    <glyph glyph-name="afii10098" unicode="&#x491;" horiz-adv-x="842" 
 />
    <glyph glyph-name="Wgrave" unicode="&#x1e80;" horiz-adv-x="1933" 
 />
    <glyph glyph-name="wgrave" unicode="&#x1e81;" horiz-adv-x="1479" 
 />
    <glyph glyph-name="Wacute" unicode="&#x1e82;" horiz-adv-x="1933" 
 />
    <glyph glyph-name="wacute" unicode="&#x1e83;" horiz-adv-x="1479" 
 />
    <glyph glyph-name="Wdieresis" unicode="&#x1e84;" horiz-adv-x="1933" 
 />
    <glyph glyph-name="wdieresis" unicode="&#x1e85;" horiz-adv-x="1479" 
 />
    <glyph glyph-name="Ygrave" unicode="&#x1ef2;" horiz-adv-x="1366" 
 />
    <glyph glyph-name="ygrave" unicode="&#x1ef3;" horiz-adv-x="1024" 
 />
    <glyph glyph-name="endash" unicode="&#x2013;" 
 />
    <glyph glyph-name="emdash" unicode="&#x2014;" horiz-adv-x="2048" 
 />
    <glyph glyph-name="afii00208" unicode="&#x2015;" horiz-adv-x="2048" 
 />
    <glyph glyph-name="underscoredbl" unicode="&#x2017;" horiz-adv-x="1131" 
 />
    <glyph glyph-name="quoteleft" unicode="&#x2018;" horiz-adv-x="391" 
d="M197 1503h40l60 -84v-112c-32 -262.667 -76.333 -394 -133 -394h-40l-40 56c32 356 69.667 534 113 534z" />
    <glyph glyph-name="quoteright" unicode="&#x2019;" horiz-adv-x="391" 
d="M197 1503h40l60 -84v-112c-32 -262.667 -76.333 -394 -133 -394h-40l-40 56c32 356 69.667 534 113 534z" />
    <glyph glyph-name="quotesinglbase" unicode="&#x201a;" horiz-adv-x="455" 
 />
    <glyph glyph-name="quotereversed" unicode="&#x201b;" horiz-adv-x="455" 
 />
    <glyph glyph-name="quotedblleft" unicode="&#x201c;" horiz-adv-x="594" 
d="M197 1503h40l60 -84v-112c-32 -262.667 -76.333 -394 -133 -394h-40l-40 56c32 356 69.667 534 113 534zM439 1503h40l60 -84v-112c-32 -262.667 -76.333 -394 -133 -394h-40l-40 56c32 356 69.667 534 113 534z" />
    <glyph glyph-name="quotedblright" unicode="&#x201d;" horiz-adv-x="594" 
d="M197 1503h40l60 -84v-112c-32 -262.667 -76.333 -394 -133 -394h-40l-40 56c32 356 69.667 534 113 534zM439 1503h40l60 -84v-112c-32 -262.667 -76.333 -394 -133 -394h-40l-40 56c32 356 69.667 534 113 534z" />
    <glyph glyph-name="quotedblbase" unicode="&#x201e;" horiz-adv-x="682" 
 />
    <glyph glyph-name="dagger" unicode="&#x2020;" 
 />
    <glyph glyph-name="daggerdbl" unicode="&#x2021;" 
 />
    <glyph glyph-name="bullet" unicode="&#x2022;" horiz-adv-x="717" 
 />
    <glyph glyph-name="ellipsis" unicode="&#x2026;" horiz-adv-x="2048" 
 />
    <glyph glyph-name="perthousand" unicode="&#x2030;" horiz-adv-x="2048" 
 />
    <glyph glyph-name="minute" unicode="&#x2032;" horiz-adv-x="384" 
 />
    <glyph glyph-name="second" unicode="&#x2033;" horiz-adv-x="725" 
 />
    <glyph glyph-name="guilsinglleft" unicode="&#x2039;" horiz-adv-x="682" 
 />
    <glyph glyph-name="guilsinglright" unicode="&#x203a;" horiz-adv-x="682" 
 />
    <glyph glyph-name="exclamdbl" unicode="&#x203c;" horiz-adv-x="1024" 
 />
    <glyph glyph-name="uni203E" unicode="&#x203e;" horiz-adv-x="682" 
 />
    <glyph glyph-name="fraction" unicode="&#x2044;" horiz-adv-x="342" 
 />
    <glyph glyph-name="fraction" unicode="&#x2215;" horiz-adv-x="342" 
 />
    <glyph glyph-name="uni207F" unicode="&#x207f;" horiz-adv-x="747" 
 />
    <glyph glyph-name="franc" unicode="&#x20a3;" 
 />
    <glyph glyph-name="lira" unicode="&#x20a4;" 
 />
    <glyph glyph-name="peseta" unicode="&#x20a7;" horiz-adv-x="2240" 
 />
    <glyph glyph-name="Euro" unicode="&#x20ac;" horiz-adv-x="777" 
d="M247 530c-14 -133.333 5.99805 -225.334 59.998 -276.001c65.333 -62 192.333 -28 381 102c36 17.333 53.333 -2.66699 52 -60s-17.333 -104.333 -48 -141c-81.333 -77.333 -164.5 -126.666 -249.5 -147.999s-173.833 -11.666 -266.5 29.001
c-35.333 17.333 -69.166 64.333 -101.499 141s-51.833 158 -58.5 244c-2.66699 28.667 -2.66699 61.334 0 98.001l-66 29v32c0 18 26 34.333 78 49c5.33301 34 12 70.667 20 110c-7.33301 0 -14.666 -0.333008 -21.999 -1l-72 32v32c0 22 41 42 123 60
c41.333 135.333 112 250.333 212 345c116 109.333 251.333 171.666 406 186.999c54.667 -5.33301 81.334 -29.833 80.001 -73.5s-24 -93.5 -68 -149.5c-108 -18 -200.333 -68 -277 -150c-30.667 -32.667 -58 -73.334 -82 -122.001c36 3.33301 74.333 6.66602 115 9.99902
h145l109 -48v-32c0 -27.333 -141 -51.666 -423 -72.999c-8.66699 -27.333 -16.334 -56.333 -23.001 -87c55.333 6 118 11.667 188 17h145l109 -48v-32c0 -28.667 -155.333 -54 -466 -76z" />
    <glyph glyph-name="afii61248" unicode="&#x2105;" horiz-adv-x="1813" 
 />
    <glyph glyph-name="afii61289" unicode="&#x2113;" horiz-adv-x="662" 
 />
    <glyph glyph-name="afii61352" unicode="&#x2116;" horiz-adv-x="2197" 
 />
    <glyph glyph-name="trademark" unicode="&#x2122;" horiz-adv-x="2048" 
 />
    <glyph glyph-name="Omega" unicode="&#x2126;" horiz-adv-x="1573" 
 />
    <glyph glyph-name="estimated" unicode="&#x212e;" horiz-adv-x="1229" 
 />
    <glyph glyph-name="oneeighth" unicode="&#x215b;" horiz-adv-x="1708" 
 />
    <glyph glyph-name="threeeighths" unicode="&#x215c;" horiz-adv-x="1708" 
 />
    <glyph glyph-name="fiveeighths" unicode="&#x215d;" horiz-adv-x="1708" 
 />
    <glyph glyph-name="seveneighths" unicode="&#x215e;" horiz-adv-x="1708" 
 />
    <glyph glyph-name="arrowleft" unicode="&#x2190;" horiz-adv-x="2048" 
 />
    <glyph glyph-name="arrowup" unicode="&#x2191;" horiz-adv-x="1024" 
 />
    <glyph glyph-name="arrowright" unicode="&#x2192;" horiz-adv-x="2048" 
 />
    <glyph glyph-name="arrowdown" unicode="&#x2193;" horiz-adv-x="1024" 
 />
    <glyph glyph-name="arrowboth" unicode="&#x2194;" horiz-adv-x="2048" 
 />
    <glyph glyph-name="arrowupdn" unicode="&#x2195;" horiz-adv-x="1024" 
 />
    <glyph glyph-name="arrowupdnbse" unicode="&#x21a8;" horiz-adv-x="1024" 
 />
    <glyph glyph-name="partialdiff" unicode="&#x2202;" horiz-adv-x="1012" 
 />
    <glyph glyph-name="Delta" unicode="&#x2206;" horiz-adv-x="1253" 
 />
    <glyph glyph-name="product" unicode="&#x220f;" horiz-adv-x="1686" 
 />
    <glyph glyph-name="summation" unicode="&#x2211;" horiz-adv-x="1460" 
 />
    <glyph glyph-name="minus" unicode="&#x2212;" horiz-adv-x="1196" 
 />
    <glyph glyph-name="radical" unicode="&#x221a;" horiz-adv-x="1124" 
 />
    <glyph glyph-name="infinity" unicode="&#x221e;" horiz-adv-x="1460" 
 />
    <glyph glyph-name="orthogonal" unicode="&#x221f;" horiz-adv-x="2005" 
 />
    <glyph glyph-name="intersection" unicode="&#x2229;" horiz-adv-x="1472" 
 />
    <glyph glyph-name="integral" unicode="&#x222b;" horiz-adv-x="561" 
 />
    <glyph glyph-name="approxequal" unicode="&#x2248;" horiz-adv-x="1124" 
 />
    <glyph glyph-name="notequal" unicode="&#x2260;" horiz-adv-x="1124" 
 />
    <glyph glyph-name="equivalence" unicode="&#x2261;" horiz-adv-x="1195" 
 />
    <glyph glyph-name="lessequal" unicode="&#x2264;" horiz-adv-x="1124" 
 />
    <glyph glyph-name="greaterequal" unicode="&#x2265;" horiz-adv-x="1124" 
 />
    <glyph glyph-name="house" unicode="&#x2302;" horiz-adv-x="1237" 
 />
    <glyph glyph-name="revlogicalnot" unicode="&#x2310;" horiz-adv-x="1196" 
 />
    <glyph glyph-name="integraltp" unicode="&#x2320;" horiz-adv-x="1237" 
 />
    <glyph glyph-name="integralbt" unicode="&#x2321;" horiz-adv-x="1237" 
 />
    <glyph glyph-name="SF100000" unicode="&#x2500;" horiz-adv-x="1451" 
 />
    <glyph glyph-name="SF110000" unicode="&#x2502;" horiz-adv-x="1280" 
 />
    <glyph glyph-name="SF010000" unicode="&#x250c;" horiz-adv-x="1451" 
 />
    <glyph glyph-name="SF030000" unicode="&#x2510;" horiz-adv-x="1451" 
 />
    <glyph glyph-name="SF020000" unicode="&#x2514;" horiz-adv-x="1451" 
 />
    <glyph glyph-name="SF040000" unicode="&#x2518;" horiz-adv-x="1451" 
 />
    <glyph glyph-name="SF080000" unicode="&#x251c;" horiz-adv-x="1451" 
 />
    <glyph glyph-name="SF090000" unicode="&#x2524;" horiz-adv-x="1451" 
 />
    <glyph glyph-name="SF060000" unicode="&#x252c;" horiz-adv-x="1451" 
 />
    <glyph glyph-name="SF070000" unicode="&#x2534;" horiz-adv-x="1451" 
 />
    <glyph glyph-name="SF050000" unicode="&#x253c;" horiz-adv-x="1451" 
 />
    <glyph glyph-name="SF430000" unicode="&#x2550;" horiz-adv-x="1451" 
 />
    <glyph glyph-name="SF240000" unicode="&#x2551;" horiz-adv-x="1451" 
 />
    <glyph glyph-name="SF510000" unicode="&#x2552;" horiz-adv-x="1451" 
 />
    <glyph glyph-name="SF520000" unicode="&#x2553;" horiz-adv-x="1451" 
 />
    <glyph glyph-name="SF390000" unicode="&#x2554;" horiz-adv-x="1451" 
 />
    <glyph glyph-name="SF220000" unicode="&#x2555;" horiz-adv-x="1451" 
 />
    <glyph glyph-name="SF210000" unicode="&#x2556;" horiz-adv-x="1451" 
 />
    <glyph glyph-name="SF250000" unicode="&#x2557;" horiz-adv-x="1451" 
 />
    <glyph glyph-name="SF500000" unicode="&#x2558;" horiz-adv-x="1451" 
 />
    <glyph glyph-name="SF490000" unicode="&#x2559;" horiz-adv-x="1451" 
 />
    <glyph glyph-name="SF380000" unicode="&#x255a;" horiz-adv-x="1451" 
 />
    <glyph glyph-name="SF280000" unicode="&#x255b;" horiz-adv-x="1451" 
 />
    <glyph glyph-name="SF270000" unicode="&#x255c;" horiz-adv-x="1451" 
 />
    <glyph glyph-name="SF260000" unicode="&#x255d;" horiz-adv-x="1451" 
 />
    <glyph glyph-name="SF360000" unicode="&#x255e;" horiz-adv-x="1451" 
 />
    <glyph glyph-name="SF370000" unicode="&#x255f;" horiz-adv-x="1451" 
 />
    <glyph glyph-name="SF420000" unicode="&#x2560;" horiz-adv-x="1451" 
 />
    <glyph glyph-name="SF190000" unicode="&#x2561;" horiz-adv-x="1451" 
 />
    <glyph glyph-name="SF200000" unicode="&#x2562;" horiz-adv-x="1451" 
 />
    <glyph glyph-name="SF230000" unicode="&#x2563;" horiz-adv-x="1451" 
 />
    <glyph glyph-name="SF470000" unicode="&#x2564;" horiz-adv-x="1451" 
 />
    <glyph glyph-name="SF480000" unicode="&#x2565;" horiz-adv-x="1451" 
 />
    <glyph glyph-name="SF410000" unicode="&#x2566;" horiz-adv-x="1451" 
 />
    <glyph glyph-name="SF450000" unicode="&#x2567;" horiz-adv-x="1451" 
 />
    <glyph glyph-name="SF460000" unicode="&#x2568;" horiz-adv-x="1451" 
 />
    <glyph glyph-name="SF400000" unicode="&#x2569;" horiz-adv-x="1451" 
 />
    <glyph glyph-name="SF540000" unicode="&#x256a;" horiz-adv-x="1451" 
 />
    <glyph glyph-name="SF530000" unicode="&#x256b;" horiz-adv-x="1451" 
 />
    <glyph glyph-name="SF440000" unicode="&#x256c;" horiz-adv-x="1451" 
 />
    <glyph glyph-name="upblock" unicode="&#x2580;" horiz-adv-x="1451" 
 />
    <glyph glyph-name="dnblock" unicode="&#x2584;" horiz-adv-x="1451" 
 />
    <glyph glyph-name="block" unicode="&#x2588;" horiz-adv-x="1451" 
 />
    <glyph glyph-name="lfblock" unicode="&#x258c;" horiz-adv-x="1451" 
 />
    <glyph glyph-name="rtblock" unicode="&#x2590;" horiz-adv-x="1451" 
 />
    <glyph glyph-name="ltshade" unicode="&#x2591;" horiz-adv-x="1451" 
 />
    <glyph glyph-name="shade" unicode="&#x2592;" horiz-adv-x="1451" 
 />
    <glyph glyph-name="dkshade" unicode="&#x2593;" horiz-adv-x="1493" 
 />
    <glyph glyph-name="filledbox" unicode="&#x25a0;" horiz-adv-x="1237" 
 />
    <glyph glyph-name="H22073" unicode="&#x25a1;" horiz-adv-x="1237" 
 />
    <glyph glyph-name="H18543" unicode="&#x25aa;" horiz-adv-x="726" 
 />
    <glyph glyph-name="H18551" unicode="&#x25ab;" horiz-adv-x="726" 
 />
    <glyph glyph-name="filledrect" unicode="&#x25ac;" horiz-adv-x="2048" 
 />
    <glyph glyph-name="triagup" unicode="&#x25b2;" horiz-adv-x="2027" 
 />
    <glyph glyph-name="triagrt" unicode="&#x25ba;" horiz-adv-x="2027" 
 />
    <glyph glyph-name="triagdn" unicode="&#x25bc;" horiz-adv-x="2027" 
 />
    <glyph glyph-name="triaglf" unicode="&#x25c4;" horiz-adv-x="2027" 
 />
    <glyph glyph-name="lozenge" unicode="&#x25ca;" horiz-adv-x="1012" 
 />
    <glyph glyph-name="circle" unicode="&#x25cb;" horiz-adv-x="1237" 
 />
    <glyph glyph-name="H18533" unicode="&#x25cf;" horiz-adv-x="1237" 
 />
    <glyph glyph-name="invbullet" unicode="&#x25d8;" horiz-adv-x="1237" 
 />
    <glyph glyph-name="invcircle" unicode="&#x25d9;" horiz-adv-x="1237" 
 />
    <glyph glyph-name="openbullet" unicode="&#x25e6;" horiz-adv-x="726" 
 />
    <glyph glyph-name="smileface" unicode="&#x263a;" horiz-adv-x="2091" 
 />
    <glyph glyph-name="invsmileface" unicode="&#x263b;" horiz-adv-x="2155" 
 />
    <glyph glyph-name="sun" unicode="&#x263c;" horiz-adv-x="1877" 
 />
    <glyph glyph-name="female" unicode="&#x2640;" horiz-adv-x="1536" 
 />
    <glyph glyph-name="male" unicode="&#x2642;" horiz-adv-x="1536" 
 />
    <glyph glyph-name="spade" unicode="&#x2660;" horiz-adv-x="1088" 
 />
    <glyph glyph-name="club" unicode="&#x2663;" horiz-adv-x="1344" 
 />
    <glyph glyph-name="heart" unicode="&#x2665;" horiz-adv-x="1216" 
 />
    <glyph glyph-name="diamond" unicode="&#x2666;" horiz-adv-x="1045" 
 />
    <glyph glyph-name="musicalnote" unicode="&#x266a;" horiz-adv-x="1024" 
 />
    <glyph glyph-name="musicalnotedbl" unicode="&#x266b;" horiz-adv-x="1536" 
 />
    <glyph glyph-name="uniF001" unicode="&#xf001;" horiz-adv-x="1024" 
 />
    <glyph glyph-name="uniF001" unicode="&#xfb01;" horiz-adv-x="1024" 
 />
    <glyph glyph-name="uniF002" unicode="&#xf002;" horiz-adv-x="1024" 
 />
    <glyph glyph-name="uniF002" unicode="&#xfb02;" horiz-adv-x="1024" 
 />
    <glyph glyph-name="uniF004" unicode="&#xf004;" horiz-adv-x="682" 
 />
    <glyph glyph-name="uniF005" unicode="&#xf005;" horiz-adv-x="682" 
 />
    <glyph glyph-name=".null" horiz-adv-x="0" 
 />
    <glyph glyph-name="nonmarkingreturn" horiz-adv-x="569" 
 />
    <glyph glyph-name="glyph155" horiz-adv-x="1124" 
 />
  </font>
</defs>
</svg>
