<?xml version="1.0" encoding="utf-8"?>
<!-- Generator: Adobe Illustrator 16.0.0, SVG Export Plug-In . SVG Version: 6.00 Build 0)  -->
<!DOCTYPE svg PUBLIC "-//W3C//DTD SVG 1.1//EN" "http://www.w3.org/Graphics/SVG/1.1/DTD/svg11.dtd">
<svg version="1.1" id="Layer_1" xmlns="http://www.w3.org/2000/svg" xmlns:xlink="http://www.w3.org/1999/xlink" x="0px" y="0px"
	 width="24.173px" height="22.711px" viewBox="0 0 24.173 22.711" enable-background="new 0 0 24.173 22.711" xml:space="preserve">
<path fill="#004268" d="M7.404,8.341H4.141c-0.456,0-0.825,0.37-0.825,0.826v5.016c0,0.456,0.369,0.826,0.825,0.826h3.263
	c0.147,0,0.291,0.038,0.419,0.112l5.23,4.869c0.549,0.324,1.242-0.072,1.242-0.712V4.069c0-0.638-0.693-1.034-1.242-0.711
	l-5.23,4.87C7.695,8.303,7.551,8.341,7.404,8.341"/>
<rect x="18.862" y="6.738" transform="matrix(0.7071 0.7071 -0.7071 0.7071 13.9706 -10.253)" fill="#004268" width="1" height="9.999"/>
<rect x="18.862" y="6.738" transform="matrix(-0.7071 0.7071 -0.7071 -0.7071 41.3526 6.3468)" fill="#004268" width="1" height="9.999"/>
</svg>
