<?xml version="1.0" encoding="utf-8"?>
<!-- Generator: Adobe Illustrator 16.0.0, SVG Export Plug-In . SVG Version: 6.00 Build 0)  -->
<!DOCTYPE svg PUBLIC "-//W3C//DTD SVG 1.1//EN" "http://www.w3.org/Graphics/SVG/1.1/DTD/svg11.dtd">
<svg version="1.1" id="Layer_1" xmlns="http://www.w3.org/2000/svg" xmlns:xlink="http://www.w3.org/1999/xlink" x="0px" y="0px"
	 width="24.173px" height="22.711px" viewBox="0 0 24.173 22.711" enable-background="new 0 0 24.173 22.711" xml:space="preserve">
<path fill="#004268" d="M7.404,8.341H4.141c-0.456,0-0.825,0.37-0.825,0.826v5.016c0,0.456,0.369,0.826,0.825,0.826h3.263
	c0.147,0,0.291,0.038,0.419,0.112l5.23,4.869c0.549,0.324,1.242-0.072,1.242-0.712V4.069c0-0.638-0.693-1.034-1.242-0.711
	l-5.23,4.87C7.695,8.303,7.551,8.341,7.404,8.341"/>
<path fill="#004268" d="M17.254,16.985c-0.102,0-0.201-0.038-0.277-0.115c-0.154-0.152-0.154-0.399,0-0.553
	c2.445-2.448,2.445-6.429,0-8.876c-0.154-0.153-0.154-0.4,0-0.553c0.152-0.153,0.4-0.153,0.553,0c2.754,2.751,2.754,7.229,0,9.981
	C17.454,16.947,17.354,16.985,17.254,16.985"/>
<path fill="#004268" d="M15.864,15.399c-0.1,0-0.199-0.038-0.275-0.115c-0.154-0.152-0.154-0.399,0-0.553
	c1.685-1.685,1.685-4.427,0-6.113c-0.154-0.152-0.154-0.401,0-0.555c0.152-0.153,0.4-0.153,0.553,0c1.992,1.992,1.992,5.232,0,7.221
	C16.065,15.361,15.965,15.399,15.864,15.399"/>
<path fill="#004268" d="M18.405,18.93c-0.102,0-0.201-0.039-0.277-0.114c-0.153-0.153-0.153-0.402,0-0.557
	c1.707-1.708,2.648-3.977,2.648-6.39c0-2.412-0.941-4.683-2.648-6.389c-0.153-0.153-0.153-0.4,0-0.555
	c0.152-0.152,0.4-0.152,0.554,0c1.856,1.856,2.88,4.322,2.88,6.943c0,2.622-1.023,5.088-2.88,6.946
	C18.606,18.891,18.504,18.93,18.405,18.93"/>
</svg>
